<svg xmlns="http://www.w3.org/2000/svg" xmlns:xlink="http://www.w3.org/1999/xlink" viewBox="0 0 183.28 37.16"><defs><style>.cls-1{fill:none;}.cls-2{fill:#09113a;}.cls-3{clip-path:url(#clip-path);}.cls-4{fill:url(#linear-gradient);}.cls-5{opacity:0.2;}.cls-6{clip-path:url(#clip-path-2);}.cls-7{fill:#fff;}.cls-8{fill:#0b123a;}.cls-9{clip-path:url(#clip-path-3);}.cls-10{fill:url(#linear-gradient-2);}.cls-11{clip-path:url(#clip-path-4);}.cls-12{fill:url(#linear-gradient-3);}.cls-13{fill:#231f20;}</style><clipPath id="clip-path" transform="translate(0 0)"><path class="cls-1" d="M5.52,4.66A28.15,28.15,0,0,0,4.31,16c.87,8.43,5.56,15.1,14,19.82,8.39-4.72,13.08-11.39,14-19.82A28.15,28.15,0,0,0,31,4.66,27,27,0,0,0,18.27,1.37,27,27,0,0,0,5.52,4.66"/></clipPath><linearGradient id="linear-gradient" x1="-203.43" y1="143.04" x2="-202.43" y2="143.04" gradientTransform="matrix(29.62, 0, 0, -29.62, 6028.8, 4255.31)" gradientUnits="userSpaceOnUse"><stop offset="0" stop-color="#50aade"/><stop offset="0.18" stop-color="#428ac2"/><stop offset="0.38" stop-color="#366eaa"/><stop offset="0.59" stop-color="#2e5b99"/><stop offset="0.79" stop-color="#294f8e"/><stop offset="1" stop-color="#274b8b"/></linearGradient><clipPath id="clip-path-2" transform="translate(0 0)"><rect class="cls-1" x="4.89" y="1.37" width="26.76" height="34.15"/></clipPath><clipPath id="clip-path-3" transform="translate(0 0)"><path class="cls-1" d="M18.09,36.72C7,30.62,4,22.06,3.34,16A28.18,28.18,0,0,1,4.67,4l.06-.16.15-.07A27.86,27.86,0,0,1,18.26.3,27.87,27.87,0,0,1,31.65,3.81l.15.07.05.16A27.91,27.91,0,0,1,33.19,16c-.62,6.11-3.68,14.67-14.75,20.77l-.18.1ZM4.74,3.54l-.24.13-.1.26A28.32,28.32,0,0,0,3.05,16c.62,6.18,3.71,14.84,14.89,21l.32.18.33-.18c11.18-6.16,14.27-14.82,14.89-21a28.32,28.32,0,0,0-1.35-12L32,3.67l-.24-.13A28.3,28.3,0,0,0,18.26,0,28.29,28.29,0,0,0,4.74,3.54"/></clipPath><linearGradient id="linear-gradient-2" x1="-203.42" y1="143.32" x2="-202.42" y2="143.32" gradientTransform="matrix(30.72, 0, 0, -30.72, 6252.55, 4421.71)" gradientUnits="userSpaceOnUse"><stop offset="0" stop-color="#a0692c"/><stop offset="0.03" stop-color="#bf8b36"/><stop offset="0.07" stop-color="#edc045"/><stop offset="0.09" stop-color="#ffd44b"/><stop offset="0.27" stop-color="#e6b83e"/><stop offset="0.54" stop-color="#c4932c"/><stop offset="0.58" stop-color="#d0a032"/><stop offset="0.68" stop-color="#eabc40"/><stop offset="0.77" stop-color="#f9ce48"/><stop offset="0.84" stop-color="#ffd44b"/><stop offset="0.93" stop-color="#c9a13a"/><stop offset="1" stop-color="#9a742b"/></linearGradient><clipPath id="clip-path-4" transform="translate(0 0)"><path class="cls-1" d="M4.53,16A27.65,27.65,0,0,1,5.7,4.8,26.65,26.65,0,0,1,18.26,1.57,26.73,26.73,0,0,1,30.84,4.8,27.9,27.9,0,0,1,32,16c-.85,8.33-5.47,14.92-13.74,19.6C10,30.87,5.38,24.28,4.53,16M5.45,4.59A28.21,28.21,0,0,0,4.23,16c.87,8.48,5.59,15.17,14,19.91,8.45-4.74,13.17-11.43,14-19.91A28.21,28.21,0,0,0,31.08,4.59,27.18,27.18,0,0,0,18.26,1.27,27.17,27.17,0,0,0,5.45,4.59"/></clipPath><linearGradient id="linear-gradient-3" x1="-203.44" y1="142.7" x2="-202.44" y2="142.7" gradientTransform="matrix(28.34, 0, 0, -28.34, 5770.16, 4063.02)" xlink:href="#linear-gradient-2"/></defs><g id="Layer_2" data-name="Layer 2"><g id="가로형"><g id="한글영어"><path class="cls-2" d="M44.12,25.38c0-.34.31-.56.74-.56a4,4,0,0,1,1.51.37v-.85A7.36,7.36,0,0,0,45,24.19c-1.19,0-1.85.53-1.85,1.42,0,1.73,2.59,1.7,2.59,2.94,0,.52-.51.67-.85.67a3.37,3.37,0,0,1-1.66-.59v1a5.38,5.38,0,0,0,1.49.25c1.17,0,2.06-.44,2.06-1.63,0-1.7-2.67-1.76-2.67-2.84" transform="translate(0 0)"/><path class="cls-2" d="M53.66,25.89a1.38,1.38,0,0,0-1.24.94h0V26H51.14v.25h.31v3.53h1V28.28c0-.61.16-1.7.83-1.7.37,0,.41.35.41.82v2.36h1v-2.6c0-.81-.24-1.27-1-1.27" transform="translate(0 0)"/><path class="cls-2" d="M61.85,25.89c-1,0-1.54.42-1.54,1.22h1c0-.25,0-.85.51-.85.31,0,.48.19.48.74v.64c-.54,0-2.15.09-2.15,1.26a1,1,0,0,0,1.06,1,1.27,1.27,0,0,0,1.07-.59h0v.5h1V27.2c0-.75-.24-1.31-1.43-1.31m.47,2.4c0,.53-.26,1-.72,1-.28,0-.43-.22-.43-.53,0-.62.82-.73,1.15-.76Z" transform="translate(0 0)"/><polygon class="cls-2" points="67.32 25.98 66.26 25.98 65.06 27.44 65.04 27.44 65.04 24.28 64.08 24.28 63.75 24.28 63.75 24.53 64.08 24.53 64.08 29.76 65.04 29.76 65.04 27.93 65.06 27.93 66.32 29.76 67.5 29.76 65.87 27.58 67.32 25.98"/><path class="cls-2" d="M76.73,25.89a1.38,1.38,0,0,0-1.24.94h0V26H74.19v.25h.32v3.53h1V28.28c0-.61.15-1.7.83-1.7.37,0,.41.35.41.82v2.36h1v-2.6c0-.81-.24-1.27-1-1.27" transform="translate(0 0)"/><rect class="cls-2" x="78.4" y="24.28" width="0.96" height="0.87"/><polygon class="cls-2" points="78.54 25.98 78.22 25.98 78.22 26.23 78.54 26.23 78.54 29.76 79.5 29.76 79.5 25.98 78.54 25.98"/><polygon class="cls-2" points="82.62 25.98 81.82 28.5 81.8 28.5 80.93 25.98 79.95 25.98 81.35 29.76 82.15 29.76 83.46 25.98 82.62 25.98"/><path class="cls-2" d="M85.35,25.89c-1.25,0-1.68.76-1.68,1.8,0,1.59.93,2.16,1.92,2.16a2.58,2.58,0,0,0,1.22-.26v-.4a2.05,2.05,0,0,1-.74.17c-1.08,0-1.44-1.26-1.44-1.9h2.25v-.15c0-.86-.48-1.42-1.53-1.42m-.72,1.17c0-.18.13-.79.69-.79s.64.52.64.79Z" transform="translate(0 0)"/><path class="cls-2" d="M92.24,27.7c-.37-.32-1.07-.59-1.07-1s.27-.36.47-.36a1.48,1.48,0,0,1,.92.44V26a3,3,0,0,0-.88-.15c-1,0-1.35.55-1.35,1.12a1.07,1.07,0,0,0,.51.93c.38.32,1.09.6,1.09,1,0,.23-.21.38-.56.38a1.62,1.62,0,0,1-1-.46v.86a3.39,3.39,0,0,0,1,.15c.78,0,1.45-.31,1.45-1.14a1.17,1.17,0,0,0-.56-1" transform="translate(0 0)"/><path class="cls-2" d="M94.91,25.89c-1,0-1.54.42-1.54,1.22h1c0-.25,0-.85.51-.85.31,0,.47.19.47.74v.64c-.54,0-2.14.09-2.14,1.26a1,1,0,0,0,1.06,1,1.3,1.3,0,0,0,1.07-.59h0v.5h1V27.2c0-.75-.23-1.31-1.43-1.31m.33,2.4c0,.53-.26,1-.71,1-.28,0-.44-.22-.44-.53,0-.62.83-.73,1.15-.76Z" transform="translate(0 0)"/><path class="cls-2" d="M102.13,24.28H100.5v.25h.32v5.23h1V27.38h.27c.86,0,2.17-.13,2.17-1.58,0-1.27-.9-1.52-2.17-1.52m0,2.52h-.27V24.86h.27c.74,0,1.13.17,1.13.93s-.54,1-1.13,1" transform="translate(0 0)"/><path class="cls-2" d="M106.08,25.89c-1.25,0-1.68.76-1.68,1.8,0,1.59.93,2.16,1.92,2.16a2.61,2.61,0,0,0,1.22-.26v-.4a2.05,2.05,0,0,1-.74.17c-1.08,0-1.44-1.26-1.44-1.9h2.25v-.15c0-.86-.48-1.42-1.53-1.42m-.72,1.17c0-.18.13-.79.69-.79s.63.52.63.79Z" transform="translate(0 0)"/><path class="cls-2" d="M109.69,25.89c-1,0-1.54.42-1.54,1.22h1c0-.25,0-.85.5-.85.31,0,.48.19.48.74v.64c-.54,0-2.14.09-2.14,1.26a1,1,0,0,0,1,1,1.31,1.31,0,0,0,1.08-.59h0v.5h1V27.2c0-.75-.24-1.31-1.43-1.31m.47,2.4c0,.53-.26,1-.71,1-.28,0-.44-.22-.44-.53,0-.62.83-.73,1.15-.76Z" transform="translate(0 0)"/><path class="cls-2" d="M113.35,26.27c.42,0,.48.32.48,1h1c0-.86-.34-1.37-1.46-1.37s-1.7.74-1.7,1.83a1.86,1.86,0,0,0,2,2.13,3.09,3.09,0,0,0,1.17-.23v-.41a2.13,2.13,0,0,1-.75.15c-.86,0-1.35-1-1.35-2,0-.54.19-1.12.62-1.12" transform="translate(0 0)"/><path class="cls-2" d="M116.93,25.89c-1.24,0-1.68.76-1.68,1.8,0,1.59.93,2.16,1.92,2.16a2.58,2.58,0,0,0,1.22-.26v-.4a2,2,0,0,1-.73.17c-1.09,0-1.45-1.26-1.45-1.9h2.26v-.15c0-.86-.49-1.42-1.54-1.42m-.72,1.17c0-.18.13-.79.69-.79s.64.52.64.79Z" transform="translate(0 0)"/><path class="cls-2" d="M122.89,26.54v.65h1V29.1a.9.9,0,0,1-.65.22c-1.18,0-1.43-1.12-1.43-2.43,0-.74,0-2.17,1.11-2.17.77,0,.81.67.83,1h1.13c0-1-.76-1.53-2-1.53-1.69,0-2.2,1.17-2.2,2.78s.71,2.88,2.43,2.88a3.45,3.45,0,0,0,1.78-.51V26.78h.32v-.24h-2.35Z" transform="translate(0 0)"/><path class="cls-2" d="M126.89,26.92h0V26h-1.28v.25h.32v3.53h1V28.07c0-.84.34-1.19,1.3-1.19v-1a1.54,1.54,0,0,0-1.28,1" transform="translate(0 0)"/><path class="cls-2" d="M130.08,25.89c-1,0-1.54.42-1.54,1.22h1c0-.25,0-.85.51-.85.31,0,.48.19.48.74v.64c-.54,0-2.15.09-2.15,1.26a1,1,0,0,0,1.06,1,1.27,1.27,0,0,0,1.07-.59h0v.5h1V27.2c0-.75-.24-1.31-1.43-1.31m.47,2.4c0,.53-.26,1-.72,1-.27,0-.43-.22-.43-.53,0-.62.82-.73,1.15-.76Z" transform="translate(0 0)"/><path class="cls-2" d="M141.68,25.89c-1,0-1.54.42-1.54,1.22h1c0-.25,0-.85.5-.85.31,0,.48.19.48.74v.64c-.54,0-2.14.09-2.14,1.26a1,1,0,0,0,1.05,1,1.31,1.31,0,0,0,1.08-.59h0v.5h1V27.2c0-.75-.24-1.31-1.43-1.31m.47,2.4c0,.53-.26,1-.71,1-.28,0-.44-.22-.44-.53,0-.62.83-.73,1.15-.76Z" transform="translate(0 0)"/><path class="cls-2" d="M145.06,28.68V26.44h1.06V26h-1.06V24.51l-1,.58V26h-.71v.46h.71V28.8c0,.86.46,1.05,1.2,1.05.23,0,.45,0,.68-.05v-.56a1.28,1.28,0,0,1-.43.06c-.35,0-.49-.12-.49-.62" transform="translate(0 0)"/><path class="cls-2" d="M147.77,25.89c-1.25,0-1.69.76-1.69,1.8,0,1.59.93,2.16,1.93,2.16a2.61,2.61,0,0,0,1.22-.26v-.4a2.1,2.1,0,0,1-.74.17c-1.08,0-1.45-1.26-1.45-1.9h2.26v-.15c0-.86-.48-1.42-1.53-1.42M147,27.06c0-.18.14-.79.7-.79s.63.52.63.79Z" transform="translate(0 0)"/><path class="cls-2" d="M158.68,25.89a1.38,1.38,0,0,0-1.24.94h0V26h-1.29v.25h.32v3.53h1V28.28c0-.61.15-1.7.83-1.7.37,0,.41.35.41.82v2.36h1v-2.6c0-.81-.24-1.27-.95-1.27" transform="translate(0 0)"/><polygon class="cls-2" points="160.49 25.98 160.16 25.98 160.16 26.23 160.49 26.23 160.49 29.76 161.45 29.76 161.45 25.98 160.49 25.98"/><rect class="cls-2" x="160.49" y="24.28" width="0.96" height="0.87"/><polygon class="cls-2" points="164.57 25.98 163.77 28.5 163.75 28.5 162.88 25.98 161.9 25.98 163.3 29.76 164.1 29.76 165.41 25.98 164.57 25.98"/><path class="cls-2" d="M167.16,25.89c-1.25,0-1.68.76-1.68,1.8,0,1.59.92,2.16,1.92,2.16a2.61,2.61,0,0,0,1.22-.26v-.4a2.05,2.05,0,0,1-.74.17c-1.08,0-1.44-1.26-1.44-1.9h2.25v-.15c0-.86-.48-1.42-1.53-1.42m-.72,1.17c0-.18.13-.79.69-.79s.63.52.63.79Z" transform="translate(0 0)"/><path class="cls-2" d="M170.26,26.92h0V26H169v.25h.33v3.53h1V28.07c0-.84.33-1.19,1.29-1.19v-1c-.71.05-1,.54-1.28,1" transform="translate(0 0)"/><path class="cls-2" d="M173.76,27.7c-.37-.32-1.07-.59-1.07-1s.27-.36.47-.36a1.48,1.48,0,0,1,.92.44V26a2.93,2.93,0,0,0-.88-.15c-1,0-1.35.55-1.35,1.12,0,.37.1.58.52.93s1.08.6,1.08,1c0,.23-.21.38-.56.38a1.68,1.68,0,0,1-1-.46v.86a3.46,3.46,0,0,0,1,.15c.78,0,1.46-.31,1.46-1.14a1.16,1.16,0,0,0-.57-1" transform="translate(0 0)"/><polygon class="cls-2" points="174.96 25.98 174.63 25.98 174.63 26.23 174.96 26.23 174.96 29.76 175.92 29.76 175.92 25.98 174.96 25.98"/><rect class="cls-2" x="174.96" y="24.28" width="0.96" height="0.87"/><path class="cls-2" d="M181.66,26l-.88,2.58h0L179.91,26h-1.86V24.51l-1,.58V26h-.71v.46h.71V28.8c0,.86.46,1.05,1.21,1.05.22,0,.44,0,.67-.05v-.56a1.24,1.24,0,0,1-.43.06c-.35,0-.49-.12-.49-.62V26.44h.9l1.39,3.38-.57,1.64h.78L182.44,26Z" transform="translate(0 0)"/><path class="cls-2" d="M49.6,26h-.32v.25h.32v1.24c0,.6-.14,1.69-.76,1.69-.36,0-.48-.35-.48-.82V26H47.07v.25h.33v2.35c0,.81.3,1.27,1,1.27a1.34,1.34,0,0,0,1.16-.94h0v.85h1V26Z" transform="translate(0 0)"/><polygon class="cls-2" points="58.13 24.28 58.13 24.53 58.46 24.53 58.46 26.58 56.55 26.58 56.55 24.28 55.51 24.28 55.19 24.28 55.19 24.53 55.51 24.53 55.51 29.76 56.55 29.76 56.55 27.2 58.46 27.2 58.46 29.76 59.5 29.76 59.5 24.28 58.46 24.28 58.13 24.28"/><path class="cls-2" d="M72.21,24.28v.25h.32v3.36c0,.86-.11,1.43-1,1.43s-.93-.57-.93-1.43V24.28H69.28v.25h.33v3.36c0,1,.2,2,2,2s2-1,2-2V24.28H72.21Z" transform="translate(0 0)"/><path class="cls-2" d="M88.6,26.92h0V26H87.3v.25h.32v3.53h1V28.07c0-.84.34-1.19,1.3-1.19v-1a1.54,1.54,0,0,0-1.28,1" transform="translate(0 0)"/><polygon class="cls-2" points="96.83 24.28 96.83 24.53 97.15 24.53 97.15 29.76 98.11 29.76 98.11 24.28 97.15 24.28 96.83 24.28"/><path class="cls-2" d="M134.08,24.28v.25h.32v2h0a1,1,0,0,0-.92-.6c-1,0-1.38.73-1.38,2,0,1.07.32,2,1.26,2a1.17,1.17,0,0,0,1-.72h0v.63h1V24.28h-1.28Zm-.3,5c-.58,0-.65-.85-.65-1.36s.07-1.45.64-1.45.58.87.58,1.45,0,1.36-.57,1.36" transform="translate(0 0)"/><path class="cls-2" d="M138.5,26h-.33v.25h.33v1.24c0,.6-.15,1.69-.77,1.69-.35,0-.48-.35-.48-.82V26H136v.25h.33v2.35c0,.81.3,1.27,1,1.27a1.32,1.32,0,0,0,1.16-.94h0v.85h1V26Z" transform="translate(0 0)"/><path class="cls-2" d="M154.3,24.28v.25h.32v3.36c0,.86-.11,1.43-1,1.43s-.93-.57-.93-1.43V24.28h-1.37v.25h.33v3.36c0,1,.21,2,2,2s2-1,2-2V24.28H154.3Z" transform="translate(0 0)"/><path class="cls-2" d="M107.57,7.14h.68V9.39H107V6.46H104v.68h.68v6h0s-3.68,1.38-4.25-.81h0V7.9h3V6.46H97.14v.65h.65v5.48c-.06.4-.08,3.61,6.87,1.71v6.18H107V10.8h1.23v9.68h2.48v-14h-3.16Z" transform="translate(0 0)"/><path class="cls-2" d="M152,7.14h.68V9.39h-1.23V6.46h-3.06v.68h.68v6h0s-3.68,1.38-4.25-.81h0V7.9h3V6.46h-6.19v.65h.65v5.48c-.06.4-.08,3.61,6.87,1.71v6.18h2.35V10.8h1.23v9.68h2.48v-14H152Z" transform="translate(0 0)"/><polygon class="cls-2" points="124.72 7.14 124.72 7.02 124.72 6.46 121.46 6.46 121.46 7.14 122.14 7.14 122.14 12.74 124.72 12.74 124.72 10.49 126.7 10.49 126.7 9.07 124.72 9.07 124.72 7.14"/><path class="cls-2" d="M123.09,13.52h-3.43A4,4,0,0,0,120.77,11a3.94,3.94,0,0,0-1.12-2.6H121V7h-3.2V5.7h-2.58V7H112v1.4h1.42a3.94,3.94,0,0,0-1.12,2.6,4.09,4.09,0,0,0,4.11,3.92h5.82v5.59h2.66V15.33a1.78,1.78,0,0,0-1.81-1.81m-6.24,0-.42,0h0a2.4,2.4,0,0,1-2-2.61,2.49,2.49,0,0,1,1.77-2.6h.54a2.5,2.5,0,0,1,1.78,2.6,2.51,2.51,0,0,1-1.69,2.57" transform="translate(0 0)"/><polygon class="cls-2" points="53.35 16.42 55.93 16.42 55.93 7.18 55.93 7.06 55.93 6.5 52.67 6.5 52.67 7.18 53.35 7.18 53.35 9.34 50.96 9.34 50.96 10.76 53.35 10.76 53.35 16.42"/><path class="cls-2" d="M51.28,14.93c0-.12,0-.31,0-.43a5,5,0,0,0-3-4.56,4.49,4.49,0,0,0,.23-1V6.5H45.18v.68h.69v2a8.08,8.08,0,0,1-3.95,5.48l.95.66a8.67,8.67,0,0,0,4.74-4.42,5.42,5.42,0,0,1,1.24,3.48v4.3a1.79,1.79,0,0,0,1.81,1.81h5.45v-1.4H51.28Z" transform="translate(0 0)"/><polygon class="cls-2" points="69.97 7.14 69.97 7.02 69.97 6.46 66.72 6.46 66.72 7.14 67.39 7.14 67.39 12.74 69.97 12.74 69.97 10.49 71.95 10.49 71.95 9.07 69.97 9.07 69.97 7.14"/><path class="cls-2" d="M68.34,13.52H64.91A4,4,0,0,0,66,11a3.94,3.94,0,0,0-1.12-2.6h1.35V7h-3.2V5.7H60.47V7h-3.2v1.4H58.7A4,4,0,0,0,57.57,11a4.09,4.09,0,0,0,4.11,3.92H67.5v5.59h2.66V15.33a1.78,1.78,0,0,0-1.81-1.81m-6.24,0-.42,0h0a2.4,2.4,0,0,1-2-2.61,2.49,2.49,0,0,1,1.77-2.6H62A2.5,2.5,0,0,1,63.79,11a2.51,2.51,0,0,1-1.69,2.57" transform="translate(0 0)"/><path class="cls-2" d="M182.5,19.05h-.11V8.3a1.8,1.8,0,0,0-1.82-1.81h-9.18v1.4h8.34V19.05h-1.4V14h-2.74v.68h.68v4.41H175V14h-2.73v.68h.68v4.41h-2.37v1.41h12.74V19.05Z" transform="translate(0 0)"/><polygon class="cls-2" points="166.45 12.74 169.03 12.74 169.03 10.8 171.01 10.8 171.01 9.07 169.03 9.07 169.03 7.14 169.03 7.02 169.03 6.46 165.77 6.46 165.77 7.14 166.45 7.14 166.45 12.74"/><path class="cls-2" d="M167.4,13.52H164A4,4,0,0,0,165.08,11,3.94,3.94,0,0,0,164,8.35h1.35V7h-3.2V5.7h-2.58V7h-3.2v1.4h1.42a3.94,3.94,0,0,0-1.12,2.6,4.09,4.09,0,0,0,4.11,3.92h5.82v5.59h2.66V15.33a1.78,1.78,0,0,0-1.81-1.81m-6.25,0-.41,0h0a2.4,2.4,0,0,1-2-2.61,2.5,2.5,0,0,1,1.78-2.6h.54a2.49,2.49,0,0,1,1.77,2.6,2.51,2.51,0,0,1-1.69,2.57" transform="translate(0 0)"/><path class="cls-2" d="M136.86,6.5v.68h.69V8.27h0V10.7c0,.88-.63,1.39-1.9,1.55l-.42,0a3.65,3.65,0,0,0,1-2.47,4.28,4.28,0,0,0-8.53,0,3.7,3.7,0,0,0,1.07,2.57h-1.48V14h3.34v1.9h2.67V14c.51,0,.89,0,1.12,0a5.11,5.11,0,0,0,3.15-1v2h-2.78V16.5h2.78v2.57h-5.81V16.41h-2.55v2.26a1.9,1.9,0,0,0,1.93,1.81h9.1V6.5h-3.36Zm-4.92.77a2.31,2.31,0,0,1,2,2.55,2,2,0,1,1-3.94,0,2.31,2.31,0,0,1,2-2.55" transform="translate(0 0)"/><path class="cls-2" d="M94.34,7.12A4.66,4.66,0,0,0,93,6.62a17,17,0,0,0-2.73-.16H85V7.1h1V20.48h2.71V15h2.59a9.46,9.46,0,0,0,1.62-.1A4.94,4.94,0,0,0,94,14.51,3.89,3.89,0,0,0,95.67,13a4.58,4.58,0,0,0,.61-2.36,4.22,4.22,0,0,0-.5-2.06,3.58,3.58,0,0,0-1.44-1.42m-.89,4.59a2.64,2.64,0,0,1-.33.79,1.75,1.75,0,0,1-.83.74,4.72,4.72,0,0,1-1.56.18H88.67V8h2.47a2.28,2.28,0,0,1,1.77.71,2.82,2.82,0,0,1,.64,2,4.48,4.48,0,0,1-.1,1.06" transform="translate(0 0)"/><path class="cls-2" d="M81.34,6.46h-.82V7.1h.82v9.62a2.8,2.8,0,0,1,0,.48,1.79,1.79,0,0,1-.76,1.31,3,3,0,0,1-1.76.47,2.36,2.36,0,0,1-2.26-1.05,4.06,4.06,0,0,1-.29-1.82V6.46H72.77V7.1h.74v8.58a7.39,7.39,0,0,0,.14,1.68,3.9,3.9,0,0,0,.49,1.19A3.83,3.83,0,0,0,76,20.08a7.45,7.45,0,0,0,2.9.51,7,7,0,0,0,2-.26,5.35,5.35,0,0,0,1.48-.69,4.33,4.33,0,0,0,1-.93,3.39,3.39,0,0,0,.52-1,4.76,4.76,0,0,0,.19-.89c0-.27,0-.77,0-1.5V6.46H81.34Z" transform="translate(0 0)"/></g><g id="마크"><g class="cls-3"><rect class="cls-4" x="3.73" y="1.37" width="29.08" height="34.43"/></g><g class="cls-5"><g class="cls-6"><path class="cls-7" d="M23.31,1.87V32.36l.6-.51V2l-.6-.13" transform="translate(0 0)"/><path class="cls-7" d="M24.86,2.23V31l.6-.6v-28l-.6-.16" transform="translate(0 0)"/><path class="cls-7" d="M26.4,2.68v26.7c.21-.23.41-.47.6-.71V2.89l-.6-.21" transform="translate(0 0)"/><path class="cls-7" d="M28,3.24v24.2c.21-.29.41-.59.6-.88V3.49L28,3.24" transform="translate(0 0)"/><path class="cls-7" d="M29.5,3.91V25q.32-.59.6-1.2V4.19l-.6-.28" transform="translate(0 0)"/><path class="cls-7" d="M31,4.74V21.43c.23-.68.43-1.38.6-2.08V6.93c-.24-1-.47-1.81-.6-2.19" transform="translate(0 0)"/><path class="cls-7" d="M14.1,1.71V33.07l.61.45V1.62l-.61.09" transform="translate(0 0)"/><path class="cls-7" d="M15.65,1.5V34.18l.6.4V1.45l-.6.05" transform="translate(0 0)"/><path class="cls-7" d="M17.2,1.39V35.17l.6.36V1.37l-.6,0" transform="translate(0 0)"/><path class="cls-7" d="M18.74,1.37V35.52l.61-.36V1.39l-.61,0" transform="translate(0 0)"/><path class="cls-7" d="M20.29,1.45V34.57l.6-.4V1.5l-.6-.05" transform="translate(0 0)"/><path class="cls-7" d="M21.84,1.62V33.51l.6-.45V1.71l-.6-.09" transform="translate(0 0)"/><path class="cls-7" d="M4.89,6.93V19.34c.17.71.37,1.41.6,2.09V4.74a21.38,21.38,0,0,0-.6,2.19" transform="translate(0 0)"/><path class="cls-7" d="M6.43,4.19V23.77c.19.41.39.81.61,1.2V3.9l-.61.29" transform="translate(0 0)"/><path class="cls-7" d="M8,3.49V26.56c.19.3.39.59.6.88V3.24L8,3.49" transform="translate(0 0)"/><path class="cls-7" d="M9.53,2.89V28.67c.19.24.39.47.6.71V2.68l-.6.21" transform="translate(0 0)"/><path class="cls-7" d="M11.07,2.39v28l.61.6V2.23l-.61.16" transform="translate(0 0)"/><path class="cls-7" d="M12.62,2V31.85c.2.17.4.35.6.51V1.87l-.6.13" transform="translate(0 0)"/></g></g><path class="cls-8" d="M32,4l-.08-.19-.17-.09A28.09,28.09,0,0,0,18.27.22,28.1,28.1,0,0,0,4.83,3.74l-.17.09L4.58,4A28.19,28.19,0,0,0,3.25,16C3.87,22.1,6.93,30.69,18,36.81l.23.13.22-.13C29.6,30.69,32.67,22.1,33.29,16A28.28,28.28,0,0,0,32,4m.27,11.88c-.87,8.44-5.56,15.1-13.95,19.82C9.87,31,5.18,24.34,4.31,15.9A28.15,28.15,0,0,1,5.52,4.58,27,27,0,0,1,18.27,1.29,27,27,0,0,1,31,4.58,28.15,28.15,0,0,1,32.22,15.9" transform="translate(0 0)"/><g class="cls-9"><rect class="cls-10" x="2.37" width="31.79" height="37.16"/></g><g class="cls-11"><rect class="cls-12" x="3.64" y="1.27" width="29.25" height="34.62"/></g><path class="cls-7" d="M24.74,13.71l-.48.18c.57-.37.44-.38.35-.35l-.33.09-.37.09-.17.06c-.1,0-.44.1-.69.18l.06,0c.2-.26.05-.24.05-.24l.13-.15c.06-.09-.06-.1-.06-.1a.47.47,0,0,0,.13-.17c0-.11-.08-.09-.08-.09s0,0,.11-.16S23.3,13,23.3,13a.41.41,0,0,0,.08-.17c0-.1-.07,0-.07,0a6,6,0,0,1-.77.63c-.45.3-.65.46-.75.89a4.39,4.39,0,0,1-.28.76,1.92,1.92,0,0,0-.85-.1c-.28.1-.2.29-.2.29a.42.42,0,0,0-.08.18c.21-.1.28-.05.28-.05a1,1,0,0,1,.53.41c.17.39.29.42.41.48l0,.07a.85.85,0,0,0,.1.17c.09.09.12.05.12.05a.25.25,0,0,0,.12.08.81.81,0,0,1,0,.2.08.08,0,0,1-.07.09c-.09,0-.2,0-.18.16a.11.11,0,0,0,.1,0s0,0,0,.06,0,.1.05,0a.63.63,0,0,1,.2-.17.21.21,0,0,1,.11,0s0,0,0-.06,0,0-.07-.1a.65.65,0,0,1,0-.11.09.09,0,0,0,.12,0c0,.07.06.08.06.08a.28.28,0,0,1,.13.14c0,.09.08.07.08.07s.09.12.31.29.24.07.24.07c.24.14.2,0,.2,0,.18,0,.16,0,.16,0s.07,0,.08-.05-.08-.11-.08-.11,0-.05,0-.08l-.06,0s.09,0,.09-.06-.19-.08-.29-.09l-.1-.07a1.65,1.65,0,0,1-.3-.46c-.05-.09-.17-.36-.17-.36l-.05-.08c.26.05.18-.14.18-.14.24,0,.13-.15.13-.15.2,0,.18-.13.18-.13.17,0,.15,0,.15,0,.42.06.34-.15.34-.15.3,0,.22-.15.22-.15.34,0,.26-.16.26-.16.34-.12.22-.19.22-.19.3-.12.21-.2.21-.2.29-.12.21-.22.21-.22.29-.17.14-.22.14-.22.24-.19.09-.17.07-.16l-.19,0a1.45,1.45,0,0,0,.26-.21c.15-.22-.09-.09-.12-.06M22,15.16l-.13,0,.23-.17-.1.21m.45-.87-.06.07,0,0a1.31,1.31,0,0,1,.39-.25,2.91,2.91,0,0,0-.36.22" transform="translate(0 0)"/><path class="cls-7" d="M11.67,13.77a1.74,1.74,0,0,0,.26.22l-.19,0s-.17,0,.07.16c0,0-.15.05.14.23,0,0-.08.09.21.21,0,0-.09.08.21.2,0,0-.11.07.22.19,0,0-.08.11.26.16,0,0-.08.15.22.15,0,0-.08.21.34.15,0,0,0,0,.15,0,0,0,0,.11.18.13,0,0-.11.12.13.15,0,0-.08.19.18.14l-.05.08s-.12.27-.17.36a1.65,1.65,0,0,1-.3.46l-.09.07c-.11,0-.3.06-.3.09s0,0,.09.06l-.06,0s-.06.06,0,.08-.1.1-.09.11,0,0,.08.05,0,.09.16,0c0,0,0,.14.2,0,0,0,0,.11.24-.07s.25-.19.31-.29.06,0,.08-.07a.28.28,0,0,1,.13-.14s0,0,.06-.08a.09.09,0,0,0,.12,0,.65.65,0,0,1,0,.11c0,.09,0,.07-.07.1s0,.07,0,.06a.16.16,0,0,1,.1,0,.63.63,0,0,1,.2.17c.05.07.05,0,.05,0s0-.06,0-.06a.09.09,0,0,0,.09,0c0-.14-.09-.13-.17-.16s-.08-.09-.08-.09a.81.81,0,0,1,0-.2.25.25,0,0,0,.12-.08s0,0,.12-.05a.85.85,0,0,0,.1-.17l0-.07c.13-.06.25-.09.41-.48a1,1,0,0,1,.53-.41s.07,0,.29.05a.42.42,0,0,0-.08-.18s.07-.19-.21-.29A1.92,1.92,0,0,0,15,15a4.93,4.93,0,0,1-.27-.76c-.11-.43-.31-.59-.76-.89a6,6,0,0,1-.77-.63s-.09-.06-.07,0a.5.5,0,0,0,.08.18s-.16-.08-.09.06a.58.58,0,0,0,.11.16s-.12,0-.08.09a.47.47,0,0,0,.13.17s-.12,0-.06.1l.13.15s-.15,0,.05.24l.06,0c-.24-.08-.59-.16-.69-.18l-.17-.06-.37-.09-.33-.09c-.09,0-.22,0,.35.35l-.48-.18s-.27-.15-.12.06M14.45,15l.23.17-.12,0L14.45,15m-.71-.88a1.31,1.31,0,0,1,.39.25l0,0-.06-.07a2.32,2.32,0,0,0-.36-.22" transform="translate(0 0)"/><path class="cls-7" d="M21.49,17.12a4.72,4.72,0,0,0-2.11.5L20,14a3.15,3.15,0,0,0,.07-.59.75.75,0,0,0-.16-.29,10.25,10.25,0,0,1-1.2-1.44c-.22-.48,0-.86-.1-1.09a.23.23,0,0,0-.27-.19V13.1a.54.54,0,1,1-.64.53.55.55,0,0,1,.44-.53V10.35a.24.24,0,0,0-.28.19c-.05.23.12.61-.1,1.09a10.33,10.33,0,0,1-1.19,1.44.69.69,0,0,0-.15.39c0,.12,0,.49,0,.49l.64,3.66A4.79,4.79,0,0,0,15,17.12a4.64,4.64,0,0,0-3.27,1.33,7.14,7.14,0,0,0,.75,1.32A3.19,3.19,0,0,1,15,18.57a3.45,3.45,0,0,1,2.3.94c.37.33.37.35.61.59s.24.26.32.35a3.92,3.92,0,0,1,.31-.35c.25-.24.25-.26.61-.59a3.45,3.45,0,0,1,2.3-.94A3.17,3.17,0,0,1,24,19.77a7.14,7.14,0,0,0,.75-1.32,4.64,4.64,0,0,0-3.27-1.33" transform="translate(0 0)"/><path class="cls-7" d="M10.54,16.19c0-.1,0-.21,0-.32a7.74,7.74,0,0,1,15.33-1.48l2.05,2.05,1.85-1.84A11.57,11.57,0,0,0,6.7,15.87c0,.11,0,.21,0,.31l1.9-1.91Z" transform="translate(0 0)"/><path class="cls-7" d="M27.91,17.49,26,15.57c0,.1,0,.2,0,.3a7.73,7.73,0,0,1-15.32,1.51L8.61,15.31,6.77,17.16a11.57,11.57,0,0,0,23.06-1.29c0-.1,0-.2,0-.3Z" transform="translate(0 0)"/><path class="cls-7" d="M18.27,28.28a12.41,12.41,0,1,1,12.4-12.41,12.43,12.43,0,0,1-12.4,12.41m0-24.52a12.11,12.11,0,1,0,12.1,12.11A12.13,12.13,0,0,0,18.27,3.76" transform="translate(0 0)"/><path class="cls-13" d="M8.61,12.94a.83.83,0,0,0-.14.26.12.12,0,0,0,.07.16c.2.05.33-.43.64-.35s.25.24.2.45a1.08,1.08,0,0,1-.12.26l-.17-.05a.59.59,0,0,0,.18-.27.14.14,0,0,0-.08-.19c-.22-.05-.34.42-.65.33-.16,0-.23-.18-.17-.4a1.82,1.82,0,0,1,.09-.24Z" transform="translate(0 0)"/><path class="cls-13" d="M9.47,12.56h0a.26.26,0,0,1,.1.27c-.05.13-.15.15-.29.1l-.46-.16.06-.17.42.15c.08,0,.15,0,.17,0s-.15-.2-.25-.24L9,12.38,9,12.21l.66.23-.06.17Z" transform="translate(0 0)"/><path class="cls-13" d="M9.1,12l.07-.16.14.06h0a.24.24,0,0,1-.07-.28c.05-.12.15-.13.29-.07l.44.2-.07.16-.4-.18c-.08,0-.15-.05-.17,0s.12.23.22.27l.26.12-.08.16Z" transform="translate(0 0)"/><polygon class="cls-13" points="9.16 11.1 9.25 10.93 9.63 11.14 9.8 10.83 9.43 10.62 9.52 10.45 10.42 10.95 10.32 11.12 9.9 10.89 9.73 11.2 10.15 11.43 10.05 11.6 9.16 11.1"/><path class="cls-13" d="M10.63,10.46h0a.24.24,0,0,1,0,.23.2.2,0,0,1-.26.07c-.18-.13,0-.38,0-.47l-.1-.07c-.08-.05-.13-.05-.16,0s0,.14.08.17l-.11.16c-.12-.09-.13-.21,0-.37s.24-.16.35-.08l.4.26-.1.15Zm-.19-.13c0,.05-.1.19,0,.26a.08.08,0,0,0,.12,0,.16.16,0,0,0-.08-.22Z" transform="translate(0 0)"/><polygon class="cls-13" points="10.1 9.6 10.21 9.46 10.67 9.83 10.68 9.83 10.6 9.48 10.72 9.33 10.79 9.73 11.3 9.74 11.16 9.91 10.75 9.88 10.74 9.89 11.01 10.1 10.9 10.24 10.1 9.6"/><path class="cls-13" d="M11.8,8.72a.31.31,0,0,1,0,.52c-.24.24-.39.13-.52,0l-.48-.48.14-.13.48.48c.11.11.2.17.31.06s0-.2-.06-.31l-.48-.48.14-.14Z" transform="translate(0 0)"/><path class="cls-13" d="M11.71,8.32l.14-.11.1.12h0A.27.27,0,0,1,12,8.05c.1-.09.19-.05.29.06l.31.38-.14.11-.28-.33c-.06-.07-.1-.12-.16-.07s0,.25.08.34l.18.21-.14.12Z" transform="translate(0 0)"/><path class="cls-13" d="M12.14,7.57l.15-.11.1.13-.15.11Zm.19.25.15-.1.42.57-.15.1Z" transform="translate(0 0)"/><polygon class="cls-13" points="12.55 7.66 12.71 7.56 13.1 7.86 13.11 7.86 12.97 7.38 13.1 7.29 13.29 8.02 13.16 8.1 12.55 7.66"/><path class="cls-13" d="M14,7.56a.44.44,0,0,1-.17.16.35.35,0,0,1-.51-.18.29.29,0,0,1,.11-.45.25.25,0,0,1,.38.1v0l-.37.21c.06.1.24.27.41.17A.48.48,0,0,0,14,7.5Zm-.37-.33s-.09-.12-.17-.07a.14.14,0,0,0,0,.19Z" transform="translate(0 0)"/><path class="cls-13" d="M13.83,6.9,14,6.82l.08.16h0c0-.11,0-.22.13-.28l.08.17c-.16.07-.19.16-.12.3l.14.29-.16.07Z" transform="translate(0 0)"/><path class="cls-13" d="M14.73,6.67a.25.25,0,0,0-.19,0s-.08,0-.06.09.17.06.25.09.14.06.17.14,0,.24-.17.3a.59.59,0,0,1-.18,0l-.06-.14a.3.3,0,0,0,.21,0c.06,0,.08-.06.07-.1S14.6,7,14.51,7a.24.24,0,0,1-.16-.13c0-.1,0-.22.16-.29a.9.9,0,0,1,.16,0Z" transform="translate(0 0)"/><path class="cls-13" d="M15.38,6.92h0a.25.25,0,0,1-.16.17A.18.18,0,0,1,15,7c-.07-.21.21-.32.3-.36l0-.11c0-.1-.07-.12-.12-.1s-.06.13,0,.18l-.19.06c0-.14,0-.25.21-.31s.28,0,.33.15l.15.45L15.41,7Zm-.07-.22c-.06,0-.2.09-.16.2s.06.09.11.07.09-.13.06-.22Z" transform="translate(0 0)"/><rect class="cls-13" x="15.59" y="5.88" width="0.18" height="1.03" transform="translate(-1.14 4.4) rotate(-15.41)"/><path class="cls-13" d="M16.17,5.74l.24,0c.23,0,.41,0,.45.21s-.19.33-.35.36h-.05l.08.44-.19,0Zm.27.43h0c.11,0,.21-.06.18-.22s-.11-.16-.24-.13h-.05Z" transform="translate(0 0)"/><path class="cls-13" d="M17.56,6.55a.48.48,0,0,1-.22.07.35.35,0,0,1-.4-.36c0-.2,0-.35.28-.37a.25.25,0,0,1,.31.23v0l-.42,0c0,.12.11.35.31.33l.14,0Zm-.21-.46A.12.12,0,0,0,17.22,6c-.1,0-.11.13-.11.16Z" transform="translate(0 0)"/><path class="cls-13" d="M18.05,6.47h0a.24.24,0,0,1-.2.11.18.18,0,0,1-.2-.17c0-.22.29-.24.4-.25V6c0-.1,0-.13-.09-.13s-.09.11-.09.16h-.19c0-.14.09-.23.28-.23s.27.09.27.24l0,.47h-.18Zm0-.24c-.06,0-.22,0-.21.15s0,.1.08.1.13-.1.13-.2Z" transform="translate(0 0)"/><path class="cls-13" d="M18.93,6.55a.72.72,0,0,1-.22,0c-.21,0-.36-.13-.35-.42s.11-.34.33-.33S19,6,19,6.11h-.19c0-.12,0-.18-.08-.19s-.12.11-.13.21.08.37.24.38a.37.37,0,0,0,.15,0Z" transform="translate(0 0)"/><path class="cls-13" d="M19.55,6.61a.47.47,0,0,1-.24,0c-.18,0-.34-.14-.31-.44a.29.29,0,0,1,.35-.3.26.26,0,0,1,.26.3v0l-.42,0c0,.12,0,.36.23.38a.32.32,0,0,0,.14,0Zm-.11-.49s0-.15-.1-.16-.14.1-.15.14Z" transform="translate(0 0)"/><path class="cls-13" d="M20.7,6.79a.53.53,0,0,1-.34,0C20,6.74,20,6.48,20,6.19s.21-.49.52-.42.34.17.29.36l-.2,0c0-.06,0-.18-.11-.21s-.26.21-.29.35-.06.45.16.5a.21.21,0,0,0,.12,0l.08-.35-.18,0,0-.12.37.08Z" transform="translate(0 0)"/><path class="cls-13" d="M21,6.24l.17,0-.05.17h0a.28.28,0,0,1,.28-.11l-.05.17c-.18,0-.25,0-.3.14L21,7l-.18-.06Z" transform="translate(0 0)"/><path class="cls-13" d="M21.65,7.1h0a.24.24,0,0,1-.22,0,.19.19,0,0,1-.13-.24c.08-.2.37-.11.46-.07l.05-.12c0-.09,0-.14,0-.16s-.12.07-.14.12l-.18-.07c0-.14.17-.18.35-.11s.21.19.16.32l-.17.45-.17-.06Zm.08-.22c-.06,0-.21,0-.25.06a.08.08,0,0,0,0,.12c.08,0,.15,0,.19-.13Z" transform="translate(0 0)"/><path class="cls-13" d="M22.32,7.37h0a.22.22,0,0,1-.23,0c-.16-.08-.15-.26-.06-.44s.23-.3.39-.22a.17.17,0,0,1,.11.17h0l.18-.37.16.07-.44.93-.16-.08Zm-.11,0c.09,0,.16-.1.2-.18s.11-.25,0-.3-.18.1-.23.2-.09.23,0,.28" transform="translate(0 0)"/><path class="cls-13" d="M23,7.69h0a.24.24,0,0,1-.28.05c-.12-.07-.12-.17,0-.3L22.92,7l.15.09-.22.39c0,.07-.05.14,0,.17s.23-.1.29-.2l.13-.24.16.09-.35.61-.16-.09Z" transform="translate(0 0)"/><path class="cls-13" d="M23.57,8.13h0a.24.24,0,0,1-.23,0,.19.19,0,0,1-.06-.26c.12-.18.38,0,.46,0l.07-.1c.06-.08.05-.13,0-.16s-.14,0-.17.07l-.16-.1c.08-.13.21-.14.37,0s.16.24.08.35l-.27.4-.15-.1Zm.14-.19c-.06,0-.2-.1-.26,0a.08.08,0,0,0,0,.13c.07,0,.16,0,.22-.08Z" transform="translate(0 0)"/><path class="cls-13" d="M24.11,8.66,24,8.59c-.11-.08-.16-.16-.06-.29L24.22,8l-.1-.08.05-.07.11.08.1-.13.21,0L24.42,8l.15.13-.05.07-.16-.13-.25.33c-.06.08-.05.11,0,.15l.07,0Z" transform="translate(0 0)"/><path class="cls-13" d="M24.61,9.05a.4.4,0,0,1-.2-.11.35.35,0,0,1,0-.54.29.29,0,0,1,.46,0,.25.25,0,0,1,0,.39l0,0-.32-.29c-.08.09-.18.32,0,.45l.12.07Zm.2-.46a.14.14,0,0,0,0-.19c-.08-.06-.17,0-.2,0Z" transform="translate(0 0)"/><path class="cls-13" d="M25.64,9.69c-.14.12-.3.21-.52,0s-.11-.4,0-.52l.5-.45.13.15-.5.45c-.12.1-.19.19-.09.3s.2.07.32,0L26,9.09l.12.15Z" transform="translate(0 0)"/><path class="cls-13" d="M26,9.61l.1.15L26,9.85h0a.28.28,0,0,1,.28.08c.08.11,0,.2-.09.29l-.39.29-.11-.14.36-.27c.07,0,.12-.1.08-.15s-.26,0-.35.06l-.22.17L25.47,10Z" transform="translate(0 0)"/><path class="cls-13" d="M26.5,10.26l.1.15L26,10.8l-.1-.15Zm.27-.17.1.15-.14.09-.1-.15Z" transform="translate(0 0)"/><polygon class="cls-13" points="26.66 10.49 26.75 10.65 26.43 11.03 26.43 11.03 26.91 10.92 26.99 11.06 26.25 11.2 26.18 11.07 26.66 10.49"/><path class="cls-13" d="M26.67,11.94a.44.44,0,0,1-.14-.18.35.35,0,0,1,.2-.5.28.28,0,0,1,.44.13.25.25,0,0,1-.11.38h0l-.19-.38c-.11,0-.29.22-.2.4a.48.48,0,0,0,.09.11Zm.36-.35a.13.13,0,0,0,.08-.17c-.05-.1-.16-.06-.19-.05Z" transform="translate(0 0)"/><path class="cls-13" d="M27.35,11.8l.07.17-.17.07h0a.29.29,0,0,1,.27.15l-.17.07c-.07-.17-.15-.2-.3-.14l-.29.12-.07-.16Z" transform="translate(0 0)"/><path class="cls-13" d="M27.52,12.71a.24.24,0,0,0,0-.19s0-.08-.09-.06-.07.16-.1.25a.23.23,0,0,1-.14.16c-.15.05-.25,0-.3-.18a1.12,1.12,0,0,1,0-.19l.15-.05a.31.31,0,0,0,0,.2c0,.07.06.09.1.08s.08-.17.11-.25.07-.13.13-.15.22,0,.28.17a.41.41,0,0,1,0,.16Z" transform="translate(0 0)"/><path class="cls-13" d="M27.73,12.83l.05.17-.68.21L27.05,13Zm.3-.09,0,.17-.15.05-.06-.17Z" transform="translate(0 0)"/><path class="cls-13" d="M27.24,13.77a.56.56,0,0,1,0-.12c0-.14,0-.23.13-.27l.43-.11,0-.12.08,0,0,.13.16,0,.15.15-.27.07.05.19-.09,0,0-.19-.41.1c-.09,0-.11,0-.09.12a.11.11,0,0,0,0,.07Z" transform="translate(0 0)"/><polygon class="cls-13" points="27.28 14.02 27.94 13.63 27.98 13.81 27.53 14.06 27.53 14.06 28.03 14.14 28.06 14.28 26.99 14.12 26.96 13.97 27.28 14.02"/><path class="cls-7" d="M36.46,20.4l0-.22-.22.05A4.62,4.62,0,0,1,33,19.82c-1.38-.92-3-1.23-3.88-.71a1.51,1.51,0,0,0-.65,1.57l.12,2.83a38.39,38.39,0,0,1-10.36,1.15A38.36,38.36,0,0,1,7.91,23.51L8,20.68a1.51,1.51,0,0,0-.65-1.57c-.87-.52-2.5-.21-3.88.71a4.62,4.62,0,0,1-3.25.41L0,20.18l0,.22a6.73,6.73,0,0,0,2.17,3.75,5.66,5.66,0,0,1-1.82,2l-.23.15.26.11a2.46,2.46,0,0,0,1,.17A4.28,4.28,0,0,0,4.1,25.42L4.18,28v0c0,.14,1,3.54,14.08,3.55h0c13.11,0,14.05-3.41,14.08-3.55v0l.08-2.62a4.28,4.28,0,0,0,2.63,1.15,2.46,2.46,0,0,0,1-.17l.26-.11-.24-.15a5.78,5.78,0,0,1-1.81-2,6.73,6.73,0,0,0,2.17-3.75" transform="translate(0 0)"/><path class="cls-13" d="M36.49,20.39l0-.23-.23.06a4.74,4.74,0,0,1-3.25-.41c-1.38-.93-3-1.23-3.89-.72a1.52,1.52,0,0,0-.68,1.57h0l.12,2.84a38.72,38.72,0,0,1-10.34,1.13A38.69,38.69,0,0,1,7.93,23.5l.12-2.84h0a1.52,1.52,0,0,0-.68-1.57c-.87-.51-2.51-.21-3.89.72a4.74,4.74,0,0,1-3.25.41L0,20.16l0,.23a6.81,6.81,0,0,0,2.18,3.76,5.76,5.76,0,0,1-1.82,2l-.24.15.26.11a2.52,2.52,0,0,0,1,.21,4.31,4.31,0,0,0,2.64-1.15l.08,2.59a0,0,0,0,0,0,0c0,.14.94,3.56,14.09,3.57h0c13.15,0,14.06-3.43,14.09-3.57a0,0,0,0,0,0,0l.08-2.59a4.31,4.31,0,0,0,2.64,1.15,2.55,2.55,0,0,0,1-.21l.26-.11-.24-.15a5.87,5.87,0,0,1-1.82-2,6.75,6.75,0,0,0,2.18-3.76M4,20.9a2.69,2.69,0,0,0,0,.52l.12,3.65c-.61.55-1.93,1.54-3.27,1.15a5.55,5.55,0,0,0,1.74-2l0-.11L2.5,24A6.43,6.43,0,0,1,.38,20.55a4.69,4.69,0,0,0,3.27-.5c1.29-.87,2.79-1.16,3.57-.7a1.22,1.22,0,0,1,.53,1.29h0a.65.65,0,0,1-.21.5.76.76,0,0,1-.62.13,2,2,0,0,1-.66-.39c-.56-.41-1.27-.92-2-.47A1,1,0,0,0,4,20.9m.28.08a.64.64,0,0,1,.21-.32c.51-.34,1.1.09,1.62.46a2.06,2.06,0,0,0,.79.44,1.06,1.06,0,0,0,.84-.18l-.09,2c-2.46-.77-3.17-1.67-3.34-1.95a.89.89,0,0,1,0-.48m27.81,7c-.07.21-1.34,3.32-13.81,3.33S4.53,28.23,4.46,28l-.2-6.09c.83.94,3.8,2.95,14,3h0c10.2-.05,13.17-2.06,14-3Zm.17-6.56c-.17.28-.88,1.18-3.34,1.95l-.09-2a1.06,1.06,0,0,0,.84.18,2.06,2.06,0,0,0,.79-.44c.52-.37,1.11-.8,1.62-.46a.58.58,0,0,1,.21.32.89.89,0,0,1,0,.48M34,24l-.1.07.05.11a5.55,5.55,0,0,0,1.74,2c-1.34.39-2.66-.6-3.27-1.15l.12-3.65a2.69,2.69,0,0,0,0-.52,1,1,0,0,0-.32-.49c-.69-.45-1.4.06-2,.47a2,2,0,0,1-.66.39.77.77,0,0,1-.62-.13.65.65,0,0,1-.21-.5h0a1.22,1.22,0,0,1,.53-1.29c.78-.46,2.28-.17,3.57.7a4.7,4.7,0,0,0,3.27.5A6.51,6.51,0,0,1,34,24" transform="translate(0 0)"/><path class="cls-13" d="M17.28,26.64h.12v.42h-.22v-.54h-.55v.13h.12v1.09h0s-.66.23-.76-.17h0v-.81h.53V26.5H16l-.58,0v.12h.12v1c0,.07,0,.66,1.23.34v1.13h.42V27.31h.22v1.77h.45V26.53h-.56Z" transform="translate(0 0)"/><path class="cls-13" d="M25.24,26.28h.12v.4l-.23,0v-.53l-.55.06v.12h.12l0,1.08h0s-.67.32-.78-.06h0v-.79l.54-.07v-.25l-.53.06-.59.07v.11h.12v1c0,.08,0,.65,1.26.17v0l0,1.12.42-.05,0-1.77.22,0,0,1.78.45-.06,0-2.43v-.12l-.58.07Z" transform="translate(0 0)"/><polygon class="cls-13" points="20.38 26.63 20.38 26.61 20.38 26.5 19.79 26.52 19.79 26.64 19.91 26.64 19.92 27.65 20.38 27.64 20.38 27.23 20.75 27.22 20.74 26.96 20.38 26.97 20.38 26.63"/><path class="cls-13" d="M20.09,27.78H20l-.57,0a.74.74,0,0,0,.2-.47.66.66,0,0,0-.21-.46h.25v-.25l-.58,0V26.4l-.46,0v.22l-.59,0v.25h.26a.77.77,0,0,0-.2.48.72.72,0,0,0,.75.68h0l1.06,0v1h.48V28.1a.32.32,0,0,0-.33-.32m-1.14,0h-.07a.43.43,0,0,1-.36-.46.46.46,0,0,1,.32-.48h.1a.42.42,0,0,1,.32.45.47.47,0,0,1-.31.48" transform="translate(0 0)"/><polygon class="cls-13" points="7.56 27.12 8.02 27.25 8.07 25.69 8.07 25.67 8.07 25.58 7.49 25.41 7.49 25.53 7.61 25.56 7.6 25.93 7.17 25.8 7.17 26.04 7.59 26.16 7.56 27.12"/><path class="cls-13" d="M7.2,26.76a.17.17,0,0,0,0-.07,1.14,1.14,0,0,0-.51-.92.53.53,0,0,0,0-.15V25.2L6.16,25v.12l.12,0v.33a1,1,0,0,1-.73.73l.17.15a1.06,1.06,0,0,0,.86-.5,1,1,0,0,1,.2.65l0,.92a.42.42,0,0,0,.31.39l.06,0,.91.26V27.9l-.86-.25Z" transform="translate(0 0)"/><polygon class="cls-13" points="10.54 26.18 10.54 26.16 10.55 26.06 9.96 25.96 9.96 26.08 10.08 26.1 10.05 27.09 10.52 27.17 10.53 26.77 10.89 26.83 10.89 26.58 10.54 26.52 10.54 26.18"/><path class="cls-13" d="M10.22,27.26h-.05l-.57-.09a.58.58,0,0,0,.21-.43.77.77,0,0,0-.19-.49l.25,0V26l-.58-.09v-.22l-.47-.08v.22l-.58-.1V26l.26,0a.58.58,0,0,0-.21.43A.87.87,0,0,0,9,27.3H9l1.06.17,0,1.07.49.08v-1a.37.37,0,0,0-.32-.37m-1.13-.19H9a.53.53,0,0,1-.35-.53.37.37,0,0,1,.33-.4h.1a.53.53,0,0,1,.31.52.37.37,0,0,1-.32.4" transform="translate(0 0)"/><path class="cls-13" d="M30.85,27.06h0l0-1.89c0-.18-.14-.27-.33-.21l-.05,0-1.63.53v.24l1.54-.49,0,2h0l-.25.08v-.88l-.5.17v.11l.12,0v.76l-.24.08v-.87l-.5.16v.12l.12-.05v.76l-.43.14V28L31,27.26V27Z" transform="translate(0 0)"/><polygon class="cls-13" points="27.86 26.81 28.33 26.74 28.33 26.4 28.7 26.34 28.7 26.04 28.33 26.09 28.33 25.76 28.33 25.74 28.33 25.64 27.73 25.73 27.73 25.85 27.86 25.83 27.86 26.81"/><path class="cls-13" d="M28,26.92H28l-.57.09a.82.82,0,0,0,.2-.48.58.58,0,0,0-.21-.43l.25,0v-.25l-.59.09V25.7l-.47.08V26l-.59.09v.24l.26,0a.82.82,0,0,0-.2.49.61.61,0,0,0,.75.56h0l1.07-.16v1.07l.49-.08v-1a.27.27,0,0,0-.33-.26m-1.15.18-.08,0a.36.36,0,0,1-.36-.4.53.53,0,0,1,.32-.51h.1a.37.37,0,0,1,.33.4.56.56,0,0,1-.31.5" transform="translate(0 0)"/><path class="cls-13" d="M22.51,26.41v.12h.12v.2h0v.45q0,.24-.33.3h-.07a.76.76,0,0,0,.16-.46.72.72,0,0,0-.78-.68.77.77,0,0,0-.73.77.65.65,0,0,0,.2.46l-.26,0v.3l.59,0v.35l.47,0v-.36l.2,0a.89.89,0,0,0,.55-.21V28l-.49,0v.29l.49,0v.47l-1,.06,0-.49-.45,0v.42a.33.33,0,0,0,.35.31h0l1.58-.1v-.26l-.07-2.32-.47,0Zm-.86.19c.19,0,.35.19.36.45a.43.43,0,0,1-.34.49c-.19,0-.35-.19-.36-.45s.15-.48.34-.49" transform="translate(0 0)"/><path class="cls-13" d="M14.93,26.56a.64.64,0,0,0-.24-.1,2.51,2.51,0,0,0-.48-.05l-.72,0h-.21v.12h.18l-.07,2.42h.48l0-1,.46,0a1.06,1.06,0,0,0,.28,0,.59.59,0,0,0,.19,0,.67.67,0,0,0,.32-.28,1,1,0,0,0,.12-.43.92.92,0,0,0-.08-.38.6.6,0,0,0-.25-.27m-.18.84a.59.59,0,0,1-.06.14.39.39,0,0,1-.15.14,1,1,0,0,1-.28,0h-.37l0-1,.44,0a.38.38,0,0,1,.31.14.51.51,0,0,1,.1.36,1,1,0,0,1,0,.2" transform="translate(0 0)"/><path class="cls-13" d="M12.56,26.29h-.15v.12h.15l0,1.6v.16a.28.28,0,0,1,0,.09.3.3,0,0,1-.14.23.53.53,0,0,1-.32.05.46.46,0,0,1-.4-.23.91.91,0,0,1,0-.34l0-1.76-.39,0H11v.11l.13,0,0,1.57a1,1,0,0,0,0,.31.75.75,0,0,0,.4.54,1.46,1.46,0,0,0,.52.14,1.42,1.42,0,0,0,.36,0,.89.89,0,0,0,.26-.11.45.45,0,0,0,.18-.15.5.5,0,0,0,.1-.17.5.5,0,0,0,0-.16s0-.14,0-.28l0-1.62-.39,0Z" transform="translate(0 0)"/></g></g></g></svg>