<svg xmlns="http://www.w3.org/2000/svg" xmlns:xlink="http://www.w3.org/1999/xlink" viewBox="0 0 265.16 48.89"><defs><style>.cls-1{fill:url(#New_Gradient_Swatch_3);}.cls-2{opacity:0.2;}.cls-3{fill:#fff;}.cls-4{fill:#0b123a;}.cls-5{fill:url(#New_Gradient_Swatch_2);}.cls-6{fill:url(#New_Gradient_Swatch_2-2);}.cls-7{fill:#231f20;}</style><linearGradient id="New_Gradient_Swatch_3" x1="4.51" y1="24.44" x2="42.57" y2="24.44" gradientUnits="userSpaceOnUse"><stop offset="0" stop-color="#50aade"/><stop offset="0.18" stop-color="#428ac2"/><stop offset="0.38" stop-color="#366eaa"/><stop offset="0.59" stop-color="#2e5b99"/><stop offset="0.79" stop-color="#294f8e"/><stop offset="1" stop-color="#274b8b"/></linearGradient><linearGradient id="New_Gradient_Swatch_2" x1="3.77" y1="24.44" x2="43.24" y2="24.44" gradientUnits="userSpaceOnUse"><stop offset="0" stop-color="#a0692c"/><stop offset="0.03" stop-color="#bf8b36"/><stop offset="0.07" stop-color="#edc045"/><stop offset="0.09" stop-color="#ffd44b"/><stop offset="0.27" stop-color="#e6b83e"/><stop offset="0.54" stop-color="#c4932c"/><stop offset="0.58" stop-color="#d0a032"/><stop offset="0.68" stop-color="#eabc40"/><stop offset="0.77" stop-color="#f9ce48"/><stop offset="0.84" stop-color="#ffd44b"/><stop offset="0.93" stop-color="#c9a13a"/><stop offset="1" stop-color="#9a742b"/></linearGradient><linearGradient id="New_Gradient_Swatch_2-2" x1="5.3" y1="24.44" x2="41.71" y2="24.44" xlink:href="#New_Gradient_Swatch_2"/></defs><g id="Layer_2" data-name="Layer 2"><g id="Layer_1-2" data-name="Layer 1"><g id="logo-symbol"><path class="cls-1" d="M39.89,6.13A34.05,34.05,0,0,0,23.51,1.8,34,34,0,0,0,7.13,6.13,37.68,37.68,0,0,0,5.58,21c1.11,11.1,7.14,19.86,17.93,26.07,10.78-6.21,16.81-15,17.92-26.07A37.76,37.76,0,0,0,39.89,6.13Z"/><g class="cls-2"><path class="cls-3" d="M30,2.46V42.57c.26-.22.52-.44.77-.67V2.63Z"/><path class="cls-3" d="M32,2.93V40.76l.77-.78V3.15Z"/><path class="cls-3" d="M34,3.53V38.65c.27-.31.52-.62.77-.93V3.8Z"/><path class="cls-3" d="M36,4.27V36.09c.26-.38.52-.76.77-1.15V4.59Z"/><path class="cls-3" d="M37.93,5.14v27.7c.28-.51.54-1,.78-1.57V5.52Z"/><path class="cls-3" d="M39.92,6.24v22c.3-.9.56-1.81.77-2.74V9.12A28.91,28.91,0,0,0,39.92,6.24Z"/><path class="cls-3" d="M18.16,2.25V43.5c.26.2.51.4.78.59v-42Z"/><path class="cls-3" d="M20.15,2V45l.77.53V1.91Z"/><path class="cls-3" d="M22.14,1.83V46.27l.77.46V1.81Z"/><path class="cls-3" d="M24.12,1.81V46.72l.78-.47V1.83Z"/><path class="cls-3" d="M26.11,1.91V45.48l.77-.53V2Z"/><path class="cls-3" d="M28.1,2.13V44.08l.77-.6V2.25Z"/><path class="cls-3" d="M6.32,9.12V25.45c.22.93.48,1.85.77,2.74v-22C6.93,6.73,6.63,7.73,6.32,9.12Z"/><path class="cls-3" d="M8.31,5.52V31.27c.24.54.5,1.06.77,1.58V5.14Z"/><path class="cls-3" d="M10.29,4.59V34.94c.25.39.51.77.78,1.16V4.27Z"/><path class="cls-3" d="M12.28,3.8V37.72l.77.93V3.53Z"/><path class="cls-3" d="M14.26,3.15V40l.78.78V2.93Z"/><path class="cls-3" d="M16.25,2.63V41.9l.78.67V2.46Z"/></g><path class="cls-4" d="M41.08,5.29,41,5l-.22-.12A35.39,35.39,0,0,0,23.51.29,35.4,35.4,0,0,0,6.24,4.92L6,5l-.09.25A37.93,37.93,0,0,0,4.21,21C5,29.07,9,40.38,23.21,48.43l.3.17.29-.17C38.06,40.38,42,29.07,42.8,21A37.74,37.74,0,0,0,41.08,5.29Zm.35,15.63C40.32,32,34.29,40.78,23.51,47,12.73,40.78,6.69,32,5.58,20.92A37.65,37.65,0,0,1,7.13,6,34,34,0,0,1,23.51,1.7,34,34,0,0,1,39.88,6,37.45,37.45,0,0,1,41.43,20.92Z"/><path class="cls-5" d="M41.32,5.17l-.12-.34-.31-.17A35.63,35.63,0,0,0,23.51,0,35.6,35.6,0,0,0,6.13,4.66l-.31.17-.13.34A38.34,38.34,0,0,0,4,21c.81,8.13,4.78,19.52,19.14,27.63l.42.24.41-.24C38.28,40.54,42.26,29.15,43.06,21A38.15,38.15,0,0,0,41.32,5.17ZM42.68,21c-.79,8-4.72,19.3-18.94,27.33l-.23.13-.23-.13C9.06,40.28,5.13,29,4.33,21A37.67,37.67,0,0,1,6.05,5.31l.07-.2L6.31,5A35.21,35.21,0,0,1,23.51.39,35.2,35.2,0,0,1,40.7,5l.19.1.08.2A38,38,0,0,1,42.68,21Z"/><path class="cls-6" d="M23.51,1.67A34.27,34.27,0,0,0,7,6,37.91,37.91,0,0,0,5.48,21c1.11,11.15,7.18,20,18,26.19,10.84-6.23,16.91-15,18-26.19A37.83,37.83,0,0,0,40,6,34.26,34.26,0,0,0,23.51,1.67ZM41.16,21c-1.1,11-7,19.63-17.65,25.78C12.89,40.61,7,31.93,5.86,21A37.38,37.38,0,0,1,7.36,6.32,33.74,33.74,0,0,1,23.51,2.06,33.8,33.8,0,0,1,39.66,6.32,37.79,37.79,0,0,1,41.16,21Z"/><path class="cls-3" d="M31.85,18c-.05,0-.61.24-.61.24.73-.49.57-.5.45-.46l-.43.12-.47.12-.22.07c-.13,0-.57.14-.88.24l.07,0c.25-.34.06-.31.06-.31a2.48,2.48,0,0,0,.16-.21c.09-.11-.07-.12-.07-.12a.67.67,0,0,0,.17-.23c.05-.15-.1-.12-.1-.12s0,0,.14-.21-.12-.08-.12-.08a.77.77,0,0,0,.11-.23c0-.13-.1-.06-.1-.06a7.83,7.83,0,0,1-1,.83c-.57.4-.83.61-1,1.17a5.82,5.82,0,0,1-.36,1,2.38,2.38,0,0,0-1.09-.13c-.36.13-.26.38-.26.38a.6.6,0,0,0-.11.25c.28-.14.37-.08.37-.08a1.28,1.28,0,0,1,.68.55c.21.51.37.54.53.63l0,.08h0a.7.7,0,0,0,.13.23c.11.12.15.07.15.07a.32.32,0,0,0,.16.1,1.39,1.39,0,0,1,0,.27s0,.08-.09.12-.26,0-.23.21a.13.13,0,0,0,.12-.07s.06,0,0,.07,0,.14.07,0a.74.74,0,0,1,.26-.22.21.21,0,0,1,.13,0s.05-.05,0-.09-.05,0-.09-.12a.56.56,0,0,1,0-.15.12.12,0,0,0,.15,0c0,.09.09.1.09.1a.35.35,0,0,1,.16.19c0,.11.11.09.11.09s.11.16.4.39.3.08.3.08c.31.19.26,0,.26,0,.23.05.2-.06.2-.06s.1-.05.11-.07-.11-.14-.11-.14,0-.07,0-.1L30,22.34s.11-.05.11-.08-.25-.11-.38-.12l-.13-.1a2.37,2.37,0,0,1-.38-.59C29.17,21.33,29,21,29,21l-.06-.1c.33.05.23-.2.23-.2.3,0,.17-.19.17-.19.25,0,.22-.17.22-.17.23,0,.2,0,.2,0,.54.08.44-.2.44-.2.39,0,.28-.19.28-.19.44-.07.34-.21.34-.21.43-.17.27-.25.27-.25.39-.16.28-.27.28-.27.37-.15.26-.28.26-.28.38-.23.19-.3.19-.3.3-.25.12-.22.08-.21a1.64,1.64,0,0,1-.23,0,2.4,2.4,0,0,0,.33-.28C32.2,17.83,31.89,18,31.85,18ZM28.3,19.94l-.16-.05.3-.22C28.38,19.77,28.34,19.86,28.3,19.94Zm.59-1.14a.36.36,0,0,0-.08.09l0-.05a1.81,1.81,0,0,1,.5-.33A3.39,3.39,0,0,0,28.89,18.8Z"/><path class="cls-3" d="M15.06,18.12a1.79,1.79,0,0,0,.33.28,1.73,1.73,0,0,1-.24,0s-.21,0,.09.21c0,0-.2.07.18.3,0,0-.11.13.27.28,0,0-.12.11.27.27,0,0-.15.08.28.25,0,0-.1.14.34.21,0,0-.11.19.28.19,0,0-.1.28.44.2,0,0,0,.06.19,0,0,0,0,.14.23.17,0,0-.14.17.17.19,0,0-.1.25.23.2l-.06.1s-.17.36-.22.48a2.16,2.16,0,0,1-.39.59l-.12.1c-.14,0-.38.08-.38.12s.07.06.11.08L17,22.4s-.08.07,0,.1-.12.12-.11.14,0,.06.11.07,0,.11.19.06c0,0,0,.19.27,0,0,0,0,.14.3-.08s.32-.26.4-.39.08,0,.11-.09A.35.35,0,0,1,18.4,22s.05,0,.08-.1.05.06.16,0,0,.09,0,.15,0,.09-.09.12,0,.1,0,.09a.2.2,0,0,1,.13,0,.74.74,0,0,1,.26.22c.06.1.06,0,.06,0s0-.07,0-.07a.14.14,0,0,0,.13.07c0-.2-.12-.18-.23-.21s-.1-.12-.1-.12a1.47,1.47,0,0,1,0-.27.32.32,0,0,0,.16-.1s0,.05.15-.07a.94.94,0,0,0,.13-.23h0l0-.08c.16-.09.31-.12.52-.63a1.34,1.34,0,0,1,.68-.55s.09-.06.37.08a.7.7,0,0,0-.1-.25s.1-.25-.26-.38a2.38,2.38,0,0,0-1.09.13,5.82,5.82,0,0,1-.36-1c-.14-.56-.4-.77-1-1.17a7.83,7.83,0,0,1-1-.83s-.12-.07-.09.06a.9.9,0,0,0,.1.23s-.2-.1-.11.08.14.21.14.21-.15,0-.1.12a.67.67,0,0,0,.17.23s-.16,0-.08.12l.17.21s-.19,0,.06.31l.07,0c-.31-.1-.75-.21-.88-.24l-.22-.07-.47-.12-.43-.12c-.12,0-.28,0,.45.46,0,0-.57-.21-.61-.24S14.86,17.83,15.06,18.12Zm3.57,1.55.3.22-.16.05Zm-.9-1.16a1.74,1.74,0,0,1,.49.33l0,.05-.08-.09A3.39,3.39,0,0,0,17.73,18.51Z"/><path class="cls-3" d="M27.68,22.53a6,6,0,0,0-2.71.65l.82-4.83a4.94,4.94,0,0,0,.09-.77.84.84,0,0,0-.21-.38,13.73,13.73,0,0,1-1.53-1.9c-.29-.64-.07-1.13-.14-1.43a.29.29,0,0,0-.35-.25v3.62a.7.7,0,0,1,.56.69.71.71,0,0,1-.69.71.71.71,0,0,1-.13-1.4V13.62a.3.3,0,0,0-.35.25c-.07.3.16.79-.13,1.43a13.73,13.73,0,0,1-1.53,1.9.89.89,0,0,0-.19.5,5.57,5.57,0,0,0,.06.65l.82,4.82a5.94,5.94,0,0,0-6.88,1.1,9.23,9.23,0,0,0,1,1.74,4,4,0,0,1,3.22-1.58,4.38,4.38,0,0,1,3,1.24c.46.43.46.45.78.78a4.44,4.44,0,0,1,.4.46c.1-.12.24-.29.41-.46a9.42,9.42,0,0,1,.78-.78,4.37,4.37,0,0,1,3-1.24A4,4,0,0,1,30.91,26a9.23,9.23,0,0,0,1-1.74A5.92,5.92,0,0,0,27.68,22.53Z"/><path class="cls-3" d="M13.6,21.3c0-.14,0-.28,0-.42A10.08,10.08,0,0,1,23.53,10.7a10,10,0,0,1,9.76,8.23l2.63,2.7L38.3,19.2A15,15,0,0,0,23.53,5.67,15,15,0,0,0,8.68,20.88c0,.14,0,.27,0,.4l2.45-2.5Z"/><path class="cls-3" d="M35.92,23l-2.46-2.52c0,.13,0,.27,0,.4a10.08,10.08,0,0,1-9.94,10.18,10,10,0,0,1-9.75-8.2l-2.64-2.71L8.77,22.57A15,15,0,0,0,23.53,36.09,15,15,0,0,0,38.39,20.88c0-.13,0-.26,0-.39Z"/><path class="cls-3" d="M23.53,37.2A16.15,16.15,0,0,1,7.6,20.88,16.15,16.15,0,0,1,23.53,4.56,16.15,16.15,0,0,1,39.47,20.88,16.15,16.15,0,0,1,23.53,37.2ZM23.53,5A15.77,15.77,0,0,0,8,20.88,15.77,15.77,0,0,0,23.53,36.81,15.77,15.77,0,0,0,39.09,20.88,15.77,15.77,0,0,0,23.53,5Z"/><path class="cls-3" d="M46.84,26.84l.06-.3-.29.07a5.83,5.83,0,0,1-4.17-.53c-1.77-1.22-3.87-1.62-5-.94a2,2,0,0,0-.85,2.06h0l.16,3.73a48.82,48.82,0,0,1-13.3,1.51,48.76,48.76,0,0,1-13.3-1.51l.15-3.73h0a2,2,0,0,0-.84-2.06c-1.12-.68-3.21-.28-5,.94a5.83,5.83,0,0,1-4.17.53L0,26.54l0,.3a8.86,8.86,0,0,0,2.79,4.93A7.64,7.64,0,0,1,.55,34.39l-.31.19.33.15A3.3,3.3,0,0,0,1.89,35a5.46,5.46,0,0,0,3.38-1.51l.1,3.45v0c0,.19,1.25,4.66,18.09,4.68h0c16.83,0,18-4.49,18.08-4.68,0,0,0,0,0,0l.09-3.45A5.51,5.51,0,0,0,45,35a3.25,3.25,0,0,0,1.32-.22l.33-.15-.3-.19a7.51,7.51,0,0,1-2.34-2.62A8.8,8.8,0,0,0,46.84,26.84Z"/><path class="cls-7" d="M46.88,26.82l0-.3-.29.07a5.83,5.83,0,0,1-4.18-.54c-1.78-1.22-3.88-1.61-5-.94a2,2,0,0,0-.87,2.06h0l.16,3.74c-2.68.8-6.84,1.46-13.28,1.49s-10.61-.69-13.29-1.49l.16-3.74h0a2,2,0,0,0-.87-2.06c-1.12-.67-3.22-.28-5,.94a5.83,5.83,0,0,1-4.18.54L0,26.52l.06.3a8.88,8.88,0,0,0,2.8,4.95A7.49,7.49,0,0,1,.51,34.39l-.3.2.33.14A3.13,3.13,0,0,0,1.85,35a5.47,5.47,0,0,0,3.39-1.52l.11,3.41v0c0,.2,1.22,4.69,18.11,4.71h0c16.88,0,18.06-4.51,18.1-4.71v0l.1-3.41A5.47,5.47,0,0,0,45.08,35a3.13,3.13,0,0,0,1.31-.28l.33-.14-.3-.2a7.41,7.41,0,0,1-2.34-2.62A8.94,8.94,0,0,0,46.88,26.82Zm-41.77.67a3.8,3.8,0,0,0,0,.69L5.23,33c-.79.73-2.48,2-4.2,1.52a7.52,7.52,0,0,0,2.24-2.71l.06-.14-.12-.09A8.54,8.54,0,0,1,.49,27a5.92,5.92,0,0,0,4.19-.66c1.67-1.14,3.6-1.54,4.6-.93a1.66,1.66,0,0,1,.68,1.7h0a.87.87,0,0,1-.27.65A1,1,0,0,1,8.9,28a2.54,2.54,0,0,1-.85-.51c-.73-.54-1.64-1.22-2.52-.62A1.19,1.19,0,0,0,5.11,27.49Zm.37.11a.79.79,0,0,1,.26-.42c.66-.45,1.42.11,2.08.61a2.64,2.64,0,0,0,1,.58,1.33,1.33,0,0,0,1.08-.25l-.11,2.67c-3.17-1-4.08-2.19-4.3-2.57A1.21,1.21,0,0,1,5.48,27.6Zm35.73,9.26c-.09.27-1.72,4.37-17.74,4.38S5.82,37.13,5.73,36.86l-.25-8c1.06,1.23,4.88,3.89,18,3.94h0c13.09,0,16.91-2.71,18-3.94Zm.22-8.64c-.22.38-1.14,1.56-4.3,2.57L37,28.12a1.33,1.33,0,0,0,1.08.25,2.58,2.58,0,0,0,1-.58c.67-.5,1.42-1.06,2.09-.61a.86.86,0,0,1,.26.42A1.21,1.21,0,0,1,41.43,28.22Zm2.3,3.34-.12.09.06.14a7.33,7.33,0,0,0,2.24,2.71c-1.72.5-3.42-.79-4.2-1.52l.15-4.8a3.06,3.06,0,0,0,0-.69,1.22,1.22,0,0,0-.41-.64c-.89-.6-1.79.08-2.52.62A2.54,2.54,0,0,1,38,28a1,1,0,0,1-.79-.17.88.88,0,0,1-.28-.65h0a1.64,1.64,0,0,1,.69-1.7c1-.61,2.93-.21,4.59.93a5.92,5.92,0,0,0,4.19.66A8.56,8.56,0,0,1,43.73,31.56Z"/><path class="cls-7" d="M13.09,15l.11-.27c.15.06.29,0,.41-.19a.43.43,0,0,0,.08-.24.22.22,0,0,0-.08-.15.27.27,0,0,0-.12,0,.32.32,0,0,0-.17.08l-.23.22a.69.69,0,0,1-.21.14.39.39,0,0,1-.19,0,.44.44,0,0,1-.19-.07.42.42,0,0,1-.2-.33.59.59,0,0,1,.12-.41.61.61,0,0,1,.27-.26.43.43,0,0,1,.33,0l-.09.27a.35.35,0,0,0-.38.35.16.16,0,0,0,.08.14c.07,0,.17,0,.28-.08l.21-.19a.61.61,0,0,1,.33-.18.5.5,0,0,1,.27.08.47.47,0,0,1,.22.35.86.86,0,0,1-.46.76A.48.48,0,0,1,13.09,15Z"/><path class="cls-7" d="M15,13l-.16.19-.19-.17a.39.39,0,0,1,0,.47.33.33,0,0,1-.24.13.35.35,0,0,1-.27-.11L13.49,13l.18-.21.58.51a.22.22,0,0,0,.17.06.21.21,0,0,0,.1-.06.24.24,0,0,0,.05-.18.43.43,0,0,0-.19-.29L14,12.46l.18-.21Z"/><path class="cls-7" d="M16.11,12l-.2.18-.49-.55a.26.26,0,0,0-.16-.1.15.15,0,0,0-.13.05.21.21,0,0,0-.08.19.4.4,0,0,0,.13.26l.4.45-.2.18-.79-.88.18-.17.19.21a.42.42,0,0,1,.06-.47.39.39,0,0,1,.27-.1.44.44,0,0,1,.31.18Z"/><path class="cls-7" d="M18.55,10.43l-.26.14-.68-1.23.3,1.45-.14.07-1.07-1,.69,1.23-.21.12L16.4,9.79l.39-.22.8.74-.21-1.07L17.77,9Z"/><path class="cls-7" d="M19.48,10.09a.5.5,0,0,1-.45,0,.77.77,0,0,1-.28-.36.63.63,0,0,1,0-.47.5.5,0,0,1,.31-.31.54.54,0,0,1,.43,0,.68.68,0,0,1,.3.36.66.66,0,0,1,0,.48A.49.49,0,0,1,19.48,10.09Zm-.07-.21c.17-.06.2-.22.11-.47a.47.47,0,0,0-.16-.25.22.22,0,0,0-.22,0A.23.23,0,0,0,19,9.3a.66.66,0,0,0,0,.3.5.5,0,0,0,.17.25A.22.22,0,0,0,19.41,9.88Z"/><path class="cls-7" d="M20.88,9.67a.46.46,0,0,1-.44-.1.77.77,0,0,1-.23-.39.65.65,0,0,1,.05-.46.49.49,0,0,1,.36-.26.52.52,0,0,1,.42.07.71.71,0,0,1,.25.4.64.64,0,0,1-.06.48A.52.52,0,0,1,20.88,9.67Zm0-.22c.17,0,.23-.19.17-.46a.58.58,0,0,0-.13-.26.21.21,0,0,0-.21-.06.23.23,0,0,0-.18.15.51.51,0,0,0,0,.3.43.43,0,0,0,.14.27A.21.21,0,0,0,20.84,9.45Z"/><path class="cls-7" d="M22.83,9.35l-.27,0-.07-.74a.25.25,0,0,0-.07-.17.16.16,0,0,0-.14-.05.22.22,0,0,0-.17.11.41.41,0,0,0-.05.28l.06.61-.27,0-.12-1.19.25,0,0,.27c.07-.2.18-.32.33-.33a.4.4,0,0,1,.28.07.47.47,0,0,1,.14.34Z"/><path class="cls-7" d="M25.42,7.85l-.1,1a1,1,0,0,1-.08.32.51.51,0,0,1-.2.18.63.63,0,0,1-.34,0,.57.57,0,0,1-.31-.1.37.37,0,0,1-.16-.21.65.65,0,0,1,0-.32l.1-1,.29,0-.1,1a.38.38,0,0,0,.06.29.3.3,0,0,0,.2.08.31.31,0,0,0,.22,0,.38.38,0,0,0,.11-.27l.1-1Z"/><path class="cls-7" d="M26.71,9.78l-.26-.07L26.63,9a.29.29,0,0,0,0-.19.2.2,0,0,0-.11-.09.25.25,0,0,0-.2,0,.46.46,0,0,0-.14.25l-.14.6-.26-.06L26,8.39l.23,0-.06.27a.42.42,0,0,1,.42-.21.39.39,0,0,1,.23.16.44.44,0,0,1,0,.37Z"/><path class="cls-7" d="M27.46,10l-.25-.09.39-1.13.25.09Zm.44-1.26-.26-.09.09-.26.26.09Z"/><path class="cls-7" d="M29.25,9.49l-.85.92-.2-.09.11-1.25.25.11-.08.85.58-.62Z"/><path class="cls-7" d="M29.92,10.81l.19.15a.56.56,0,0,1-.3.14.55.55,0,0,1-.34-.09.51.51,0,0,1-.26-.35.67.67,0,0,1,.1-.46.64.64,0,0,1,.36-.31.5.5,0,0,1,.44.06.48.48,0,0,1,.25.35.73.73,0,0,1-.11.46l0,0-.69-.42a.67.67,0,0,0-.08.18.26.26,0,0,0,0,.15.27.27,0,0,0,.12.14A.27.27,0,0,0,29.92,10.81Zm.16-.32a.29.29,0,0,0,.05-.22.28.28,0,0,0-.12-.16.24.24,0,0,0-.2,0,.35.35,0,0,0-.19.14Z"/><path class="cls-7" d="M30.53,11.7l-.22-.16.72-1,.19.15-.17.23a.45.45,0,0,1,.26-.11.24.24,0,0,1,.19.05l0,0-.17.23a.29.29,0,0,0-.3-.06.56.56,0,0,0-.2.17Z"/><path class="cls-7" d="M31.2,11.87l.21.14a.27.27,0,0,0,.09.28c.13.11.22.13.29.06a.13.13,0,0,0,0-.09.36.36,0,0,0,0-.09L31.64,12a.37.37,0,0,1,0-.5.34.34,0,0,1,.27-.12.49.49,0,0,1,.32.15.41.41,0,0,1,.15.52l-.21-.13a.2.2,0,0,0-.06-.25c-.11-.09-.19-.11-.25,0s0,.11,0,.21L32,12a.35.35,0,0,1-.32.57.78.78,0,0,1-.52-.45A.36.36,0,0,1,31.2,11.87Z"/><path class="cls-7" d="M32.23,13.28l-.18-.2.88-.8.18.2Zm1-.89-.18-.2.21-.19.17.2Z"/><path class="cls-7" d="M33.08,14l-.17.13a.52.52,0,0,1-.13-.13.33.33,0,0,1-.08-.17.25.25,0,0,1,0-.17.59.59,0,0,1,.16-.17l.48-.37L33.27,13l.17-.13.1.13.25-.17.15.16-.25.2.14.19-.16.13-.15-.19-.45.36a.25.25,0,0,0-.1.12.29.29,0,0,0,.06.15Z"/><path class="cls-7" d="M34.64,14.59l-1.39.34a.41.41,0,0,1-.22,0,.25.25,0,0,1-.17-.14,1.05,1.05,0,0,1-.08-.13l.18-.12.07.11a.3.3,0,0,0,.09.1h.11l.09,0,0-.06.72-.94.15.24-.51.66.79-.21Z"/><path d="M13.81,36.07a1.49,1.49,0,0,0-.75-1.22v-1l-1-.21v.23l.23.06v.36c0,1-1.18,1.43-1.18,1.43l.34.26c.49.11,1-.43,1.34-.8a1.1,1.1,0,0,1,.25.8v1.41a.75.75,0,0,0,.64.78l1.37.24v-.47l-1.27-.22Z"/><path d="M16.76,36.87l.42.05v1.2a.66.66,0,0,0,.59.64c.39.05,2.4.21,2.4.2v-.44c-.74-.05-1.48-.11-2.21-.19V37l.33,0v.64l.84.07v-.64c.41,0,.83.06,1.25.09v-.47c-1.21-.07-2.42-.18-3.62-.33Z"/><path d="M14.15,34.25l.18,0v.6l-.62-.11v.44l.62.12v1.82l.75.13V34.19L14.15,34Z"/><path d="M24.52,35.05h.19v.71h-.29v-.93h-.94v.22h.18v1.65a1.23,1.23,0,0,1-.54.13c-.47,0-.61-.24-.61-.45V35.32h.81v-.49l-1.74,0V35h.2v1.44a.73.73,0,0,0,.79.79,5.32,5.32,0,0,0,1.09-.1v1.91h.76V36.2h.29v2.87l.75,0V34.8l-.94,0Z"/><path d="M30.41,34.35l-.94.12v.22l.18,0v1.67l.76-.1v-.52l.39-.06v-.44l-.39.05Z"/><path d="M17.14,36.21l.45,0,.31,0c.77.08,1.55.14,2.32.19V35.34a.72.72,0,0,0-.68-.63c-.22,0-1.21-.1-1.64-.15l-.2,0L17,34.46v.22l.18,0Zm.76-1.14c.52.06,1,.1,1.57.14V36c-.53,0-1-.08-1.57-.14Z"/><path d="M29.81,36.45l-.78.09a1.22,1.22,0,0,0,.25-.73,1,1,0,0,0-.24-.66l.38,0v-.44l-1,.1v-.24l-.75.07v.24l-.95.08v.43l.37,0a1.23,1.23,0,0,0-.24.7,1.06,1.06,0,0,0,1.19,1h0c.51,0,1-.1,1.54-.17v1.86l.78-.11V36.94A.5.5,0,0,0,29.81,36.45Zm-1.71.19a.59.59,0,0,1-.58-.66.75.75,0,0,1,.45-.72.28.28,0,0,1,.13,0h.12a.6.6,0,0,1,.45.64A.73.73,0,0,1,28.1,36.64Z"/><path d="M35.13,37.26V34.12a.45.45,0,0,0-.59-.44c-.38.1-2.48.51-2.48.49v.45c.77-.14,1.54-.29,2.3-.45v3.27l-.33.07V35.89l-.77.16v.22l.18,0v1.4l-.34.07V36.08l-.77.14v.22l.18,0v1.4l-.67.12v.46c1.2-.2,2.39-.45,3.57-.73V37.2Z"/></g><g id="brand-name"><path class="cls-7" d="M200.62,8.91h-4.83v1h1V20.82a11.57,11.57,0,0,1-5.22-7.57V13h0V8.91h-4.84v1h1v3.37a11.61,11.61,0,0,1-5.67,7.87l1.36,1.47a12.38,12.38,0,0,0,6.22-5.25h0a12.46,12.46,0,0,0,6.22,5.25l.91-1.15V30h3.82V15.48H203V13h-2.42Z"/><path class="cls-7" d="M109.19,20.92A7.43,7.43,0,0,0,105.08,14a3.57,3.57,0,0,0,.16-.79h3.83V11h-3.81V8.91h-4.83v1h1V11h-3.8v2.28h3.8a11.61,11.61,0,0,1-5.67,7.87l1.36.95a12.45,12.45,0,0,0,6.8-6.35,7.73,7.73,0,0,1,1.79,5v6.71a2.57,2.57,0,0,0,2.6,2.6h8.5V28h-7.61Z"/><path class="cls-7" d="M263.88,28V11.54a2.58,2.58,0,0,0-2.61-2.6H248.08v2h12V28h-2V19.63h-3.92v1h1V28h-1.87V19.63h-3.93v1h1V28h-3.4v2h18.3V28Z"/><polygon class="cls-7" points="244.69 8.91 240.01 8.91 240.01 9.89 240.99 9.89 240.99 17.87 244.69 17.87 244.69 15.61 246.49 15.61 246.49 13.12 244.69 13.12 244.69 8.91"/><path class="cls-7" d="M242.35,19h-4.92a5.68,5.68,0,0,0,1.59-3.7,5.71,5.71,0,0,0-1.61-3.73h1.94v-2h-4.6V8.28h-3.7V9.54h-4.6v2h2.05a5.67,5.67,0,0,0-1.62,3.73,5.88,5.88,0,0,0,5.91,5.64h8.35V30H245V21.58A2.58,2.58,0,0,0,242.35,19Zm-9,0-.59.05h0c-1.59-.06-2.86-1.72-2.86-3.76a3.58,3.58,0,0,1,2.55-3.73h.78a3.58,3.58,0,0,1,2.55,3.73A3.62,3.62,0,0,1,233.38,19Z"/><polygon class="cls-7" points="112.74 24.97 116.56 24.97 116.58 8.91 116.56 8.91 116.56 8.9 111.75 8.91 111.75 9.88 112.74 9.88 112.74 14.12 109.11 14.12 109.11 16.44 112.74 16.44 112.74 24.97"/><polygon class="cls-7" points="118.42 21.22 126.22 21.22 126.22 30 130.03 30 130.06 21.22 137.88 21.22 137.88 18.89 118.42 18.89 118.42 21.22"/><path class="cls-7" d="M159,8.91l-4.83,0v1h1V12h-3.16v2.11h3.16v.95h-3.16v2.11h3.16v1.95a6.63,6.63,0,0,0-1.91-.28h-.25a5.44,5.44,0,0,0-.58.05c-.43,0-.91,0-1.46,0h0a27.53,27.53,0,0,0,.13-3V11.19h1.69V8.9H140.2v2.29h1.68v4.42a27.46,27.46,0,0,0,.16,3.26h-2v2.27h7.25l1.13,0a5.27,5.27,0,0,0-1.22,3.34,6.15,6.15,0,0,0,12.25,0,5.15,5.15,0,0,0-.39-2Zm-11.41,7.54c0,.79,0,1.9,0,2.42H145.4c0-.51,0-1.62,0-2.42V11.19h2.27Zm5.67,11.67c-1.56,0-2.82-1.64-2.82-3.66s1.26-3.66,2.82-3.66,2.83,1.64,2.83,3.66S154.87,28.12,153.3,28.12Z"/><path class="cls-7" d="M222.76,8.91h-4.83v1h1l0,6.78a1.51,1.51,0,0,1-.77,1.44,5.37,5.37,0,0,1-2,.49c-.85.09-2.59.14-5.21.14V13.9l-4.29,0v.92h.95v3.89h-3v2.35h2.84v6.31a2.72,2.72,0,0,0,2.77,2.6h12.55V28H211.11V21.08a40.24,40.24,0,0,0,4.85-.22,5.37,5.37,0,0,0,3-1.12v4.58h3.81v-9.7h2.68V12.27h-2.68Z"/><path class="cls-7" d="M213,16.75h3.82V11.52a2.58,2.58,0,0,0-2.6-2.6h-9.06v2H213Z"/><path class="cls-7" d="M119.38,16.74l2.11,1.79a13.59,13.59,0,0,0,6.74-4.63h0A13.56,13.56,0,0,0,135,18.53l2.11-1.79c-3.15-1.27-5.32-3-6.37-5.53h5.14V8.94H120.19v2.27h5.57C124.7,13.74,122.54,15.47,119.38,16.74Z"/><path class="cls-7" d="M183.18,13.77H180.5V8.9h-4.83v1h1v8.49c0,1.26-.92,2-2.74,2.22a29.9,29.9,0,0,1-3.41.18v-1a5.25,5.25,0,0,0,4-4.83A4.69,4.69,0,0,0,173,11.56h2v-2h-4.6V8.28h-3.7V9.54h-4.6v2h2A4.72,4.72,0,0,0,162.61,15a5.26,5.26,0,0,0,4.07,4.85v1h-4.8v2.35h5.36q3.84,0,4.89-.09c2.31-.18,3.82-.64,4.54-1.39v8.21h3.83V16.1h2.68ZM165.68,15a2.94,2.94,0,1,1,5.8,0,2.94,2.94,0,1,1-5.8,0Z"/><path d="M67.58,19.58c0-1.22-.44-3.77-3.95-5.53l.06-.11V8.85h-5.1v1.2H59.8v1.88c0,5-6.17,8.73-6.17,8.73l1.74.93c2.58,0,5.41-3.37,7-5.64,1.11.86,1.31,2.43,1.31,3.9v7.24A3.1,3.1,0,0,0,67,30.45h7.12V28H67.58Z"/><path d="M76,21.32h2.18V27.5a3,3,0,0,0,3.08,2.95H93.65V28.17H82.24V21.32H84v3.29h4.3V21.32h6.47V18.91H76Z"/><polygon points="69.32 9.92 70.26 9.92 70.26 13.01 67.04 13.01 67.04 15.29 70.26 15.29 70.26 24.68 74.16 24.68 74.16 8.78 69.32 8.78 69.32 9.92"/><path d="M78.05,17.7H93.92V11.8c0-1.88-2-3-3.49-3H77.11V9.92h.94Zm3.89-6.3H90v4H81.94Z"/><path class="cls-7" d="M62,42l-.32-2.08h.85a5.5,5.5,0,0,0,.23.72,2,2,0,0,0,.35.6,1.58,1.58,0,0,0,.52.4,1.65,1.65,0,0,0,.74.15,2.9,2.9,0,0,0,.79-.11,1.91,1.91,0,0,0,.62-.32,1.46,1.46,0,0,0,.4-.49,1.37,1.37,0,0,0,.15-.64,1.46,1.46,0,0,0-.16-.71,1.71,1.71,0,0,0-.44-.53,3.94,3.94,0,0,0-.64-.42c-.24-.13-.49-.26-.76-.38l-.81-.42a4.44,4.44,0,0,1-.76-.52,2.59,2.59,0,0,1-.56-.71,2,2,0,0,1-.23-1,2.4,2.4,0,0,1,.26-1.14,2.21,2.21,0,0,1,.67-.81,3,3,0,0,1,1-.49A4.5,4.5,0,0,1,65.19,33a6.23,6.23,0,0,1,.91.05l.9.13L67.28,35h-.84A1.91,1.91,0,0,0,66,33.93a1.38,1.38,0,0,0-1-.32,1.68,1.68,0,0,0-1.24.42,1.43,1.43,0,0,0-.43,1.08,1.33,1.33,0,0,0,.19.71,2,2,0,0,0,.51.59,4.6,4.6,0,0,0,.71.47q.4.21.81.39l.83.4a4.27,4.27,0,0,1,.73.5,2.37,2.37,0,0,1,.52.66,1.87,1.87,0,0,1,.19.9,2.2,2.2,0,0,1-.3,1.16,2.79,2.79,0,0,1-.79.85,3.62,3.62,0,0,1-1.11.5,4.65,4.65,0,0,1-1.28.18,6,6,0,0,1-1.16-.1A6.66,6.66,0,0,1,62,42Z"/><path class="cls-7" d="M72.72,42.23V41.5a3.27,3.27,0,0,1-1,.64,3.71,3.71,0,0,1-1.38.28,2.08,2.08,0,0,1-.6-.09,1.53,1.53,0,0,1-.55-.29,1.5,1.5,0,0,1-.39-.5,1.59,1.59,0,0,1-.15-.72V37.56a2.41,2.41,0,0,0,0-.31.25.25,0,0,0-.11-.17A.49.49,0,0,0,68.3,37l-.47,0v-.46l1.07,0,1.25-.08c0,.19,0,.39,0,.63s0,.41,0,.55v2.6a3.56,3.56,0,0,0,.05.72,1.21,1.21,0,0,0,.14.42.48.48,0,0,0,.26.19,1.09,1.09,0,0,0,.39.05,2.59,2.59,0,0,0,.9-.2,3.16,3.16,0,0,0,.89-.54V37.57a.87.87,0,0,0,0-.3.35.35,0,0,0-.15-.17.59.59,0,0,0-.29-.09l-.5,0v-.47l1.13,0,1.32-.08c0,.19,0,.39,0,.63s0,.41,0,.55v3.62a1.85,1.85,0,0,0,0,.25.17.17,0,0,0,.11.12.57.57,0,0,0,.28,0l.53,0V42l-.39.08-.48.1-.49.11-.44.12a.43.43,0,0,1-.4,0C72.77,42.34,72.72,42.28,72.72,42.23Z"/><path class="cls-7" d="M77.23,36.22c0,.2,0,.39,0,.54s0,.29,0,.38c.19-.14.36-.27.53-.38a2.74,2.74,0,0,1,.49-.29,3.33,3.33,0,0,1,.56-.19,3.1,3.1,0,0,1,.69-.08,2.15,2.15,0,0,1,.85.15,1.45,1.45,0,0,1,.55.41,1.54,1.54,0,0,1,.3.6,3.47,3.47,0,0,1,.08.73v2.78a1.54,1.54,0,0,0,0,.4.41.41,0,0,0,.13.24.55.55,0,0,0,.29.12,3.49,3.49,0,0,0,.51,0v.57H79.57l-.71,0v-.59a3.25,3.25,0,0,0,.5,0,.52.52,0,0,0,.28-.12.41.41,0,0,0,.13-.24,2.18,2.18,0,0,0,0-.39V38.1a1,1,0,0,0-.24-.79,1.27,1.27,0,0,0-.81-.2,1,1,0,0,0-.35.07c-.14,0-.29.1-.44.17l-.44.22c-.14.09-.26.16-.35.23v3.08a2,2,0,0,0,0,.39.47.47,0,0,0,.13.24.59.59,0,0,0,.29.12,3.54,3.54,0,0,0,.52,0v.59l-.71,0H75.51l-.71,0v-.59a3.25,3.25,0,0,0,.5,0,.59.59,0,0,0,.3-.12.46.46,0,0,0,.12-.24,2.25,2.25,0,0,0,0-.4V38.12c0-.2,0-.35,0-.46a.47.47,0,0,0-.1-.26.34.34,0,0,0-.23-.11l-.44,0v-.48a4.4,4.4,0,0,0,.84-.18,2.65,2.65,0,0,0,.69-.39Z"/><path class="cls-7" d="M92.32,35.51,88.85,42.3h-.68l-3.42-6.59-.09,4.84a2.66,2.66,0,0,0,0,.53.72.72,0,0,0,.16.34.65.65,0,0,0,.33.18,2.49,2.49,0,0,0,.56.08v.55h-3l-.89,0v-.58c.33,0,.61,0,.82,0a1.28,1.28,0,0,0,.5-.16.65.65,0,0,0,.25-.35,2.46,2.46,0,0,0,.1-.6l.16-5.83a.89.89,0,0,0-.26-.76,1.67,1.67,0,0,0-1-.21v-.58l.62,0h1.33l.49,0,3.79,7.32,3.7-7.31.55,0c.23,0,.48,0,.73,0l.73,0,.55,0v.61a3.28,3.28,0,0,0-.62,0,.89.89,0,0,0-.38.16.54.54,0,0,0-.19.3,1.84,1.84,0,0,0-.05.44l.15,5.85a3.73,3.73,0,0,0,.06.6.61.61,0,0,0,.22.35,1,1,0,0,0,.46.16,5.92,5.92,0,0,0,.82,0v.57H91v-.57a7.56,7.56,0,0,0,.76,0,.85.85,0,0,0,.45-.17.58.58,0,0,0,.2-.35,3,3,0,0,0,0-.6Z"/><path class="cls-7" d="M102.43,39.28a2.78,2.78,0,0,1-.27,1.21,3.26,3.26,0,0,1-.73,1,3.74,3.74,0,0,1-1.08.68,3.48,3.48,0,0,1-1.32.25,4.16,4.16,0,0,1-1.38-.22,3.55,3.55,0,0,1-1.13-.63,3.08,3.08,0,0,1-.76-1,2.79,2.79,0,0,1-.28-1.27,3,3,0,0,1,.25-1.2,3.14,3.14,0,0,1,1.75-1.68,3.48,3.48,0,0,1,1.34-.26,4.66,4.66,0,0,1,1.43.22,3.55,3.55,0,0,1,1.15.63,2.88,2.88,0,0,1,.76,1A2.94,2.94,0,0,1,102.43,39.28Zm-1.61.15a4.08,4.08,0,0,0-.11-.89,3.15,3.15,0,0,0-.34-.87,2.16,2.16,0,0,0-.6-.64,1.57,1.57,0,0,0-.88-.25,1.5,1.5,0,0,0-.83.23,1.67,1.67,0,0,0-.57.58,2.72,2.72,0,0,0-.32.78,3.56,3.56,0,0,0-.1.84,3.73,3.73,0,0,0,.11.84,2.92,2.92,0,0,0,.34.86,2.19,2.19,0,0,0,.59.66,1.55,1.55,0,0,0,.89.26,1.42,1.42,0,0,0,.83-.23,1.82,1.82,0,0,0,.56-.58,2.58,2.58,0,0,0,.33-.78A3.9,3.9,0,0,0,100.82,39.43Z"/><path class="cls-7" d="M109.49,39.28a2.92,2.92,0,0,1-.26,1.21,3.26,3.26,0,0,1-.73,1,3.66,3.66,0,0,1-1.09.68,3.41,3.41,0,0,1-1.32.25,4.2,4.2,0,0,1-1.38-.22,3.5,3.5,0,0,1-1.12-.63,2.94,2.94,0,0,1-.76-1,2.79,2.79,0,0,1-.29-1.27,3,3,0,0,1,.95-2.2,3.07,3.07,0,0,1,1.06-.68,3.44,3.44,0,0,1,1.34-.26,4.71,4.71,0,0,1,1.43.22,3.5,3.5,0,0,1,1.14.63,2.76,2.76,0,0,1,.76,1A2.94,2.94,0,0,1,109.49,39.28Zm-1.61.15a4,4,0,0,0-.1-.89,3.5,3.5,0,0,0-.34-.87,2.19,2.19,0,0,0-.61-.64,1.55,1.55,0,0,0-.88-.25,1.5,1.5,0,0,0-.83.23,1.86,1.86,0,0,0-.57.58,2.71,2.71,0,0,0-.31.78,3.59,3.59,0,0,0-.11.84,3.73,3.73,0,0,0,.11.84,3.22,3.22,0,0,0,.34.86,2.1,2.1,0,0,0,.6.66,1.52,1.52,0,0,0,.88.26,1.38,1.38,0,0,0,.83-.23,2,2,0,0,0,.57-.58,2.58,2.58,0,0,0,.33-.78A3.86,3.86,0,0,0,107.88,39.43Z"/><path class="cls-7" d="M111.82,36.22c0,.2,0,.39,0,.54s0,.29,0,.38c.17-.14.35-.27.51-.38a3.76,3.76,0,0,1,.5-.29,3.33,3.33,0,0,1,.56-.19,3.1,3.1,0,0,1,.69-.08,2.07,2.07,0,0,1,.84.15,1.48,1.48,0,0,1,.56.41,1.53,1.53,0,0,1,.29.6,2.92,2.92,0,0,1,.09.73v2.78a2.25,2.25,0,0,0,0,.4.48.48,0,0,0,.14.24.55.55,0,0,0,.29.12,3.49,3.49,0,0,0,.51,0v.57h-2.61l-.7,0v-.59a3.28,3.28,0,0,0,.49,0,.56.56,0,0,0,.28-.12.41.41,0,0,0,.13-.24,2.06,2.06,0,0,0,0-.39V38.1a1,1,0,0,0-.26-.79,1.22,1.22,0,0,0-.8-.2,1.13,1.13,0,0,0-.36.07c-.13,0-.28.1-.43.17l-.44.22-.34.23v3.08a1.47,1.47,0,0,0,0,.39.41.41,0,0,0,.13.24.59.59,0,0,0,.29.12,3.54,3.54,0,0,0,.52,0v.59l-.71,0H110.1l-.7,0v-.59a3.19,3.19,0,0,0,.49,0,.55.55,0,0,0,.29-.12.41.41,0,0,0,.13-.24,2.25,2.25,0,0,0,0-.4V38.12a2.9,2.9,0,0,0,0-.46.36.36,0,0,0-.09-.26.34.34,0,0,0-.24-.11l-.43,0v-.48a4.4,4.4,0,0,0,.84-.18,2.65,2.65,0,0,0,.69-.39Z"/><path class="cls-7" d="M129.29,33.11v.6a4.82,4.82,0,0,0-.61,0,.5.5,0,0,0-.33.12.47.47,0,0,0-.13.31c0,.14,0,.33,0,.58V39.3a3.19,3.19,0,0,1-.24,1.24,2.58,2.58,0,0,1-.72,1,3.31,3.31,0,0,1-1.17.66,5,5,0,0,1-1.62.24,5.94,5.94,0,0,1-1.58-.2,3.18,3.18,0,0,1-1.19-.6,2.75,2.75,0,0,1-.76-1,3.73,3.73,0,0,1-.29-1.44V34.8a3,3,0,0,0,0-.58.5.5,0,0,0-.17-.33.7.7,0,0,0-.38-.14,5.82,5.82,0,0,0-.69,0v-.58l.85,0h2.33l.88,0v.58a5.63,5.63,0,0,0-.68,0,.78.78,0,0,0-.4.14.5.5,0,0,0-.17.33,3,3,0,0,0,0,.58v4a3.05,3.05,0,0,0,.64,2.18,2.76,2.76,0,0,0,2.06.67,2.61,2.61,0,0,0,.94-.16,2.36,2.36,0,0,0,.74-.48,2.27,2.27,0,0,0,.49-.75,2.87,2.87,0,0,0,.17-1V34.8c0-.25,0-.45,0-.59a.47.47,0,0,0-.13-.31.66.66,0,0,0-.36-.13,5,5,0,0,0-.66,0v-.6l.74,0h1.88C128.9,33.14,129.13,33.13,129.29,33.11Z"/><path class="cls-7" d="M131.27,36.22c0,.2,0,.39-.05.54s0,.29,0,.38c.18-.14.36-.27.53-.38a2.74,2.74,0,0,1,.49-.29,3.33,3.33,0,0,1,.56-.19,3.1,3.1,0,0,1,.69-.08,2.15,2.15,0,0,1,.85.15,1.45,1.45,0,0,1,.55.41,1.54,1.54,0,0,1,.3.6,3.47,3.47,0,0,1,.08.73v2.78a1.54,1.54,0,0,0,0,.4.41.41,0,0,0,.13.24.55.55,0,0,0,.29.12,3.49,3.49,0,0,0,.51,0v.57h-2.61l-.71,0v-.59a3.25,3.25,0,0,0,.5,0,.56.56,0,0,0,.28-.12.41.41,0,0,0,.13-.24,2.06,2.06,0,0,0,0-.39V38.1a1,1,0,0,0-.25-.79,1.27,1.27,0,0,0-.81-.2,1,1,0,0,0-.35.07c-.14,0-.29.1-.44.17a4.51,4.51,0,0,0-.44.22c-.14.09-.26.16-.35.23v3.08a2,2,0,0,0,0,.39.42.42,0,0,0,.14.24.52.52,0,0,0,.28.12,3.54,3.54,0,0,0,.52,0v.59l-.71,0h-1.93l-.7,0v-.59a3.25,3.25,0,0,0,.5,0,.52.52,0,0,0,.29-.12.41.41,0,0,0,.13-.24,2.25,2.25,0,0,0,0-.4V38.12c0-.2,0-.35,0-.46a.41.41,0,0,0-.09-.26.34.34,0,0,0-.23-.11l-.44,0v-.48a4.4,4.4,0,0,0,.84-.18,2.65,2.65,0,0,0,.69-.39Z"/><path class="cls-7" d="M138.33,37.67V41a3.66,3.66,0,0,0,0,.37.31.31,0,0,0,.12.2.63.63,0,0,0,.28.07,4,4,0,0,0,.53,0v.57h-.86l-.76,0h-.8l-.88,0v-.57h.52a.56.56,0,0,0,.29-.08.3.3,0,0,0,.11-.2,3.12,3.12,0,0,0,0-.37V38.12c0-.2,0-.35,0-.46a.41.41,0,0,0-.1-.26.34.34,0,0,0-.24-.11l-.43,0v-.48a4.51,4.51,0,0,0,.85-.18,2.65,2.65,0,0,0,.69-.39h.74a6,6,0,0,0-.07.76C138.33,37.25,138.33,37.48,138.33,37.67ZM137.57,33a1,1,0,0,1,.68.24.78.78,0,0,1,.28.56.74.74,0,0,1-.28.55,1,1,0,0,1-.68.24,1.11,1.11,0,0,1-.37-.07,1.46,1.46,0,0,1-.3-.17.86.86,0,0,1-.21-.26.6.6,0,0,1-.08-.29.76.76,0,0,1,.29-.56A1,1,0,0,1,137.57,33Z"/><path class="cls-7" d="M141.87,42.42l-1.94-4.52c-.1-.23-.18-.41-.25-.54a.85.85,0,0,0-.19-.27.33.33,0,0,0-.25-.1l-.42,0v-.6a5.89,5.89,0,0,0,.68,0h1.82a5.89,5.89,0,0,0,.68,0V37l-.56,0c-.14,0-.23,0-.27.1s0,.13,0,.24l.18.46,1.07,2.57,1.16-2.59.18-.42q.06-.16,0-.24a.25.25,0,0,0-.22-.11H143v-.62q.3,0,.66,0h1.39l.55,0V37a1.83,1.83,0,0,0-.37,0,.58.58,0,0,0-.26.13.86.86,0,0,0-.2.27,4.86,4.86,0,0,0-.23.46l-2.08,4.56Z"/><path class="cls-7" d="M150.5,38.74h-3.76v.47c0,.09,0,.19,0,.3a2.77,2.77,0,0,0,.17.79,2.06,2.06,0,0,0,.37.63,1.7,1.7,0,0,0,1.25.57,2,2,0,0,0,1-.25,3.88,3.88,0,0,0,.87-.7l.61.33A3.6,3.6,0,0,1,149.88,42a2.91,2.91,0,0,1-1.59.43,3,3,0,0,1-2.11-.85,3.06,3.06,0,0,1-.61-.93,2.85,2.85,0,0,1-.22-1.13,4,4,0,0,1,.22-1.38,2.93,2.93,0,0,1,.63-1,2.54,2.54,0,0,1,1-.66,3.08,3.08,0,0,1,1.19-.23,3.13,3.13,0,0,1,.9.14,2.37,2.37,0,0,1,.8.38,2.3,2.3,0,0,1,.58.66,1.89,1.89,0,0,1,.23.93,1.21,1.21,0,0,1,0,.33C150.8,38.71,150.69,38.74,150.5,38.74Zm-3.66-.65h2.35a.44.44,0,0,0,.18,0s0-.07,0-.16a1,1,0,0,0-.07-.37,1.41,1.41,0,0,0-.22-.34,1.16,1.16,0,0,0-.36-.25,1.2,1.2,0,0,0-.47-.1,1.33,1.33,0,0,0-1,.35A1.71,1.71,0,0,0,146.84,38.09Z"/><path class="cls-7" d="M153.08,37.27l.37-.45a3.17,3.17,0,0,1,.34-.3,1.83,1.83,0,0,1,.44-.23,1.29,1.29,0,0,1,.83,0,1,1,0,0,1,.34.15.78.78,0,0,1,.24.24.61.61,0,0,1,.11.36.63.63,0,0,1-.27.51.94.94,0,0,1-.61.22,1.37,1.37,0,0,1-.39,0,1,1,0,0,1-.25-.11l-.17-.1a.2.2,0,0,0-.15,0,.53.53,0,0,0-.25.07.86.86,0,0,0-.27.2,1,1,0,0,0-.31.71v2.47a1.72,1.72,0,0,0,0,.43.32.32,0,0,0,.18.24,1,1,0,0,0,.45.1c.19,0,.46,0,.81,0v.59l-.88,0h-2.18c-.36,0-.65,0-.9,0v-.59a5,5,0,0,0,.6,0,.78.78,0,0,0,.32-.08.35.35,0,0,0,.13-.24c0-.11,0-.26,0-.45V38.12c0-.2,0-.35,0-.46a.41.41,0,0,0-.1-.26.34.34,0,0,0-.24-.11l-.43,0v-.48a4.69,4.69,0,0,0,.85-.18,2.44,2.44,0,0,0,.68-.39h.75l0,.3,0,.31c0,.1,0,.19,0,.27Z"/><path class="cls-7" d="M155.47,40.28h.8a2.94,2.94,0,0,0,.16.58,1.59,1.59,0,0,0,.26.48,1.19,1.19,0,0,0,.95.46,1,1,0,0,0,.79-.24.83.83,0,0,0,.21-.56.94.94,0,0,0-.09-.43,1.18,1.18,0,0,0-.27-.32,2,2,0,0,0-.41-.25l-.52-.26a5.13,5.13,0,0,1-1.26-.77,1.33,1.33,0,0,1-.5-1,1.44,1.44,0,0,1,.16-.63,1.76,1.76,0,0,1,.45-.55,2.41,2.41,0,0,1,.73-.39,3,3,0,0,1,1-.15,4.12,4.12,0,0,1,.86.1,4.19,4.19,0,0,1,.92.34l.09,1.46H159a1.57,1.57,0,0,0-.42-1,1.17,1.17,0,0,0-.82-.28,1.18,1.18,0,0,0-.68.19.61.61,0,0,0-.28.53A.72.72,0,0,0,157,38a1.59,1.59,0,0,0,.35.33,4,4,0,0,0,.51.28l.59.27.6.25a2.58,2.58,0,0,1,.53.32,1.53,1.53,0,0,1,.38.46,1.38,1.38,0,0,1,.15.67,1.64,1.64,0,0,1-.61,1.26,2.39,2.39,0,0,1-.78.42,3.73,3.73,0,0,1-1.13.15,4,4,0,0,1-1-.12,3.46,3.46,0,0,1-.91-.36Z"/><path class="cls-7" d="M166.28,41.1l.15.56a5.61,5.61,0,0,1-.71.51,1.57,1.57,0,0,1-.89.25,1.07,1.07,0,0,1-.41-.07,1.8,1.8,0,0,1-.31-.17.5.5,0,0,1-.19-.24,1.11,1.11,0,0,1-.07-.23,3,3,0,0,1-.31.25,2.07,2.07,0,0,1-.42.22,4,4,0,0,1-.57.17,3.51,3.51,0,0,1-.74.07,1.85,1.85,0,0,1-.67-.11,1.74,1.74,0,0,1-.54-.29,1.24,1.24,0,0,1-.34-.42,1.08,1.08,0,0,1-.11-.53,1.22,1.22,0,0,1,.32-.81,2.57,2.57,0,0,1,.81-.59,6.69,6.69,0,0,1,1.16-.45c.43-.13.9-.25,1.38-.38v-.75a1.14,1.14,0,0,0-.22-.75,1,1,0,0,0-.83-.27,1.18,1.18,0,0,0-.73.23.79.79,0,0,0-.32.6.6.6,0,0,1-.21.48.74.74,0,0,1-.55.19.56.56,0,0,1-.48-.17.59.59,0,0,1-.14-.38.91.91,0,0,1,.35-.66,5.17,5.17,0,0,1,1.19-.71c.3-.14.56-.25.76-.32a1.93,1.93,0,0,1,.71-.11,2.86,2.86,0,0,1,.73.09,2.28,2.28,0,0,1,.61.28,1.38,1.38,0,0,1,.41.46,1.23,1.23,0,0,1,.15.61v3.2c0,.2,0,.35,0,.46s0,.16.12.18a.66.66,0,0,0,.31-.08Zm-2.46-.19V39.45a6.18,6.18,0,0,0-1.72.57.88.88,0,0,0-.53.78.78.78,0,0,0,.21.65,1.19,1.19,0,0,0,.64.14,1.49,1.49,0,0,0,.75-.22A4.35,4.35,0,0,0,163.82,40.91Z"/><path class="cls-7" d="M167.18,40.87V34.33c0-.2,0-.36,0-.47a.38.38,0,0,0-.09-.24.38.38,0,0,0-.26-.08h-.52v-.48a3.14,3.14,0,0,0,1.66-.64h.74c0,.25-.05.51-.07.78s0,.5,0,.68v7a2.15,2.15,0,0,0,0,.4.47.47,0,0,0,.13.24.55.55,0,0,0,.29.12,3.1,3.1,0,0,0,.49,0v.58l-.78,0H167l-.76,0v-.59a3.87,3.87,0,0,0,.53,0,.52.52,0,0,0,.28-.11.39.39,0,0,0,.12-.24A4.19,4.19,0,0,0,167.18,40.87Z"/><path class="cls-7" d="M175.48,38.48v2.05a3.3,3.3,0,0,0,0,.61.58.58,0,0,0,.17.34.79.79,0,0,0,.38.15,6.34,6.34,0,0,0,.69,0v.57h-3.1l-1,0v-.58a6.21,6.21,0,0,0,.69,0,.88.88,0,0,0,.39-.15.59.59,0,0,0,.18-.35,4.68,4.68,0,0,0,0-.62V34.74a4,4,0,0,0,0-.57.49.49,0,0,0-.16-.31.66.66,0,0,0-.38-.12,5.89,5.89,0,0,0-.68,0v-.55h3.54a5.09,5.09,0,0,1,1.45.19,4,4,0,0,1,1.14.53,2.62,2.62,0,0,1,.73.83,2.44,2.44,0,0,1,0,2.15,2.67,2.67,0,0,1-.66.84,3.12,3.12,0,0,1-1,.55,3.8,3.8,0,0,1-1.18.22l-.64,0Zm0-.72.56,0h.55a1.66,1.66,0,0,0,1.22-.52,1.91,1.91,0,0,0,.48-1.39,2.17,2.17,0,0,0-.19-.93,1.85,1.85,0,0,0-.51-.65,2.26,2.26,0,0,0-.72-.38,2.94,2.94,0,0,0-.84-.12h-.33l-.22,0Z"/><path class="cls-7" d="M184.92,38.74h-3.76v.47c0,.09,0,.19,0,.3a2.47,2.47,0,0,0,.17.79,2.06,2.06,0,0,0,.37.63,1.7,1.7,0,0,0,1.25.57,2,2,0,0,0,1-.25,3.88,3.88,0,0,0,.87-.7l.61.33A3.6,3.6,0,0,1,184.3,42a2.91,2.91,0,0,1-1.59.43,3,3,0,0,1-2.11-.85,3.06,3.06,0,0,1-.61-.93,2.85,2.85,0,0,1-.22-1.13,4,4,0,0,1,.22-1.38,2.93,2.93,0,0,1,.63-1,2.71,2.71,0,0,1,.95-.66,3.08,3.08,0,0,1,1.19-.23,3.13,3.13,0,0,1,.9.14,2.37,2.37,0,0,1,.8.38,2.3,2.3,0,0,1,.58.66,1.89,1.89,0,0,1,.23.93,1.21,1.21,0,0,1,0,.33C185.22,38.71,185.11,38.74,184.92,38.74Zm-3.66-.65h2.35a.44.44,0,0,0,.18,0s0-.07,0-.16a1,1,0,0,0-.07-.37,1.09,1.09,0,0,0-.58-.59,1.2,1.2,0,0,0-.47-.1,1.33,1.33,0,0,0-1,.35A1.64,1.64,0,0,0,181.26,38.09Z"/><path class="cls-7" d="M191.42,41.1l.15.56a5.49,5.49,0,0,1-.7.51,1.59,1.59,0,0,1-.89.25,1.16,1.16,0,0,1-.42-.07,1.8,1.8,0,0,1-.31-.17.48.48,0,0,1-.18-.24.79.79,0,0,1-.08-.23,2.82,2.82,0,0,1-.3.25,2.07,2.07,0,0,1-.42.22,4.14,4.14,0,0,1-.58.17,3.41,3.41,0,0,1-.73.07,1.87,1.87,0,0,1-.68-.11,1.69,1.69,0,0,1-.53-.29,1.4,1.4,0,0,1-.35-.42,1.07,1.07,0,0,1-.1-.53,1.22,1.22,0,0,1,.31-.81,2.57,2.57,0,0,1,.81-.59,7,7,0,0,1,1.16-.45l1.39-.38v-.75a1.14,1.14,0,0,0-.23-.75,1,1,0,0,0-.83-.27,1.15,1.15,0,0,0-.72.23.8.8,0,0,0-.33.6.63.63,0,0,1-.2.48.77.77,0,0,1-.55.19.57.57,0,0,1-.49-.17.58.58,0,0,1-.13-.38.87.87,0,0,1,.35-.66,5.06,5.06,0,0,1,1.18-.71c.31-.14.56-.25.76-.32a2,2,0,0,1,.71-.11,2.94,2.94,0,0,1,.74.09,2.08,2.08,0,0,1,.6.28,1.41,1.41,0,0,1,.42.46,1.22,1.22,0,0,1,.14.61v3.2c0,.2,0,.35,0,.46s.06.16.12.18a.7.7,0,0,0,.32-.08ZM189,40.91V39.45a6.15,6.15,0,0,0-1.73.57.89.89,0,0,0-.53.78.78.78,0,0,0,.21.65,1.22,1.22,0,0,0,.64.14,1.47,1.47,0,0,0,.75-.22A4,4,0,0,0,189,40.91Z"/><path class="cls-7" d="M196.85,40.59l.54.39A4.32,4.32,0,0,1,196.07,42a3.63,3.63,0,0,1-1.64.38,2.71,2.71,0,0,1-1.14-.24,3.21,3.21,0,0,1-1.58-1.53,2.34,2.34,0,0,1-.24-1,3.39,3.39,0,0,1,.27-1.35,3.3,3.3,0,0,1,.76-1.09,3.56,3.56,0,0,1,1.15-.72,3.87,3.87,0,0,1,1.46-.27,5.42,5.42,0,0,1,.66,0,3.18,3.18,0,0,1,.66.18,1.75,1.75,0,0,1,.52.31.63.63,0,0,1,.2.46.66.66,0,0,1-.15.43.58.58,0,0,1-.47.2,1.07,1.07,0,0,1-.46-.11,1,1,0,0,1-.39-.41.85.85,0,0,0-.38-.34,1.75,1.75,0,0,0-.73-.12,1.26,1.26,0,0,0-.73.22,2,2,0,0,0-.54.54,2.8,2.8,0,0,0-.32.73,2.47,2.47,0,0,0-.12.73,3,3,0,0,0,.14.9,1.94,1.94,0,0,0,.41.76,2,2,0,0,0,1.62.74,1.91,1.91,0,0,0,1-.25A4.39,4.39,0,0,0,196.85,40.59Z"/><path class="cls-7" d="M202.34,38.74h-3.77v.47c0,.09,0,.19,0,.3a2.47,2.47,0,0,0,.17.79,2.06,2.06,0,0,0,.37.63,1.5,1.5,0,0,0,.55.41,1.6,1.6,0,0,0,.7.16,2,2,0,0,0,1-.25,4.11,4.11,0,0,0,.87-.7l.61.33A3.6,3.6,0,0,1,201.72,42a2.91,2.91,0,0,1-1.59.43,3,3,0,0,1-2.11-.85,3.06,3.06,0,0,1-.61-.93,2.85,2.85,0,0,1-.22-1.13,4,4,0,0,1,.22-1.38,2.93,2.93,0,0,1,.63-1,2.62,2.62,0,0,1,1-.66,3.08,3.08,0,0,1,1.19-.23,3.13,3.13,0,0,1,.9.14,2.37,2.37,0,0,1,.8.38,2.3,2.3,0,0,1,.58.66,1.89,1.89,0,0,1,.23.93,1.21,1.21,0,0,1,0,.33C202.64,38.71,202.53,38.74,202.34,38.74Zm-3.66-.65H201a.44.44,0,0,0,.18,0s0-.07,0-.16a1,1,0,0,0-.07-.37,1.41,1.41,0,0,0-.22-.34,1.16,1.16,0,0,0-.36-.25,1.2,1.2,0,0,0-.47-.1,1.33,1.33,0,0,0-1,.35A1.64,1.64,0,0,0,198.68,38.09Z"/><path class="cls-7" d="M209.08,38.92l-.63,1.67a2.46,2.46,0,0,0-.17.5.37.37,0,0,0,.06.33.57.57,0,0,0,.33.18,2.92,2.92,0,0,0,.68.06v.57h-3.48v-.59a2.5,2.5,0,0,0,.61-.06.79.79,0,0,0,.39-.18,1.06,1.06,0,0,0,.27-.35,4.12,4.12,0,0,0,.25-.57l3-7.67h.75l2.92,7.7a4.82,4.82,0,0,0,.26.58,1.21,1.21,0,0,0,.3.33,1.33,1.33,0,0,0,.42.18l.58.09v.54h-3.8v-.57a5.89,5.89,0,0,0,.68,0,.48.48,0,0,0,.32-.15.37.37,0,0,0,0-.32c0-.15-.11-.34-.2-.59L212,38.92Zm.25-.67h2.45l-1.2-3.2Z"/><path class="cls-7" d="M220.81,40.59l.54.39A4.36,4.36,0,0,1,220,42a3.59,3.59,0,0,1-1.63.38,2.79,2.79,0,0,1-1.15-.24,3.15,3.15,0,0,1-.93-.64,2.92,2.92,0,0,1-.64-.89,2.34,2.34,0,0,1-.24-1,3.39,3.39,0,0,1,.27-1.35,3.3,3.3,0,0,1,.76-1.09,3.46,3.46,0,0,1,1.15-.72,3.83,3.83,0,0,1,1.46-.27,5.42,5.42,0,0,1,.66,0,3.67,3.67,0,0,1,.67.18,1.83,1.83,0,0,1,.51.31.63.63,0,0,1,.2.46.62.62,0,0,1-.16.43.54.54,0,0,1-.46.2,1.07,1.07,0,0,1-.46-.11,1,1,0,0,1-.39-.41.85.85,0,0,0-.38-.34,1.75,1.75,0,0,0-.73-.12,1.2,1.2,0,0,0-.72.22,1.74,1.74,0,0,0-.54.54,2.85,2.85,0,0,0-.34.73,2.81,2.81,0,0,0-.11.73,3,3,0,0,0,.14.9,2.07,2.07,0,0,0,.41.76,2,2,0,0,0,1.62.74,1.85,1.85,0,0,0,.95-.25A4.44,4.44,0,0,0,220.81,40.59Z"/><path class="cls-7" d="M227.35,41.1l.15.56a5.49,5.49,0,0,1-.7.51,1.59,1.59,0,0,1-.89.25,1.07,1.07,0,0,1-.41-.07,1.8,1.8,0,0,1-.31-.17.5.5,0,0,1-.19-.24,1.28,1.28,0,0,1-.08-.23,2.82,2.82,0,0,1-.3.25,2.07,2.07,0,0,1-.42.22,3.77,3.77,0,0,1-.58.17,3.35,3.35,0,0,1-.73.07,1.87,1.87,0,0,1-.68-.11,1.8,1.8,0,0,1-.53-.29,1.4,1.4,0,0,1-.35-.42,1.07,1.07,0,0,1-.1-.53,1.22,1.22,0,0,1,.32-.81,2.57,2.57,0,0,1,.81-.59,6.69,6.69,0,0,1,1.16-.45c.43-.13.89-.25,1.38-.38v-.75a1.2,1.2,0,0,0-.22-.75,1,1,0,0,0-.83-.27,1.16,1.16,0,0,0-.73.23.8.8,0,0,0-.33.6.59.59,0,0,1-.2.48.75.75,0,0,1-.55.19.57.57,0,0,1-.49-.17.58.58,0,0,1-.13-.38.87.87,0,0,1,.35-.66,5.06,5.06,0,0,1,1.18-.71c.31-.14.57-.25.77-.32a1.89,1.89,0,0,1,.71-.11,2.86,2.86,0,0,1,.73.09,2.28,2.28,0,0,1,.61.28,1.5,1.5,0,0,1,.41.46,1.23,1.23,0,0,1,.15.61v3.2c0,.2,0,.35,0,.46s.05.16.12.18a.66.66,0,0,0,.31-.08Zm-2.45-.19V39.45a6.07,6.07,0,0,0-1.72.57.89.89,0,0,0-.54.78.77.77,0,0,0,.22.65,1.18,1.18,0,0,0,.63.14,1.5,1.5,0,0,0,.76-.22A4.35,4.35,0,0,0,224.9,40.91Z"/><path class="cls-7" d="M232.26,36.5V34.29c0-.19,0-.34,0-.44a.31.31,0,0,0-.09-.23.37.37,0,0,0-.26-.08h-.52v-.48a3.14,3.14,0,0,0,1.66-.64h.74a6.46,6.46,0,0,0-.07.78c0,.27,0,.5,0,.68V41a1.65,1.65,0,0,0,0,.27.17.17,0,0,0,.1.14.75.75,0,0,0,.29,0l.54,0v.46l-.78.25c-.33.1-.61.21-.87.31a.84.84,0,0,1-.26.07.85.85,0,0,1-.23,0,.48.48,0,0,1-.16-.07s-.06,0-.06-.08v-.5a1.85,1.85,0,0,1-.33.21,3.7,3.7,0,0,1-.4.18,4.17,4.17,0,0,1-.54.14,2.7,2.7,0,0,1-.63.07,2.93,2.93,0,0,1-1.2-.25,2.85,2.85,0,0,1-.91-.65,2.9,2.9,0,0,1-.78-2,2.9,2.9,0,0,1,.28-1.26,3.29,3.29,0,0,1,.76-1.06,3.71,3.71,0,0,1,1.14-.73,3.76,3.76,0,0,1,1.43-.28,2.55,2.55,0,0,1,.71.09A1.38,1.38,0,0,1,232.26,36.5Zm0,4.27V37.92a1,1,0,0,0-.13-.53,1,1,0,0,0-.33-.33,1.65,1.65,0,0,0-.44-.16,2.28,2.28,0,0,0-.44,0,1.76,1.76,0,0,0-.7.15,1.9,1.9,0,0,0-.65.45,2.27,2.27,0,0,0-.47.77,3,3,0,0,0-.19,1.08,2.63,2.63,0,0,0,.15.91,2.14,2.14,0,0,0,.42.7,1.69,1.69,0,0,0,.64.45,2,2,0,0,0,.82.16,1.43,1.43,0,0,0,.34-.06,3.89,3.89,0,0,0,.44-.16,2,2,0,0,0,.38-.24A.39.39,0,0,0,232.26,40.77Z"/><path class="cls-7" d="M239.62,38.74h-3.76v.47c0,.09,0,.19,0,.3a2.47,2.47,0,0,0,.17.79,2.06,2.06,0,0,0,.37.63,1.69,1.69,0,0,0,.55.41,1.65,1.65,0,0,0,.71.16,2,2,0,0,0,1-.25,3.88,3.88,0,0,0,.87-.7l.61.33A3.6,3.6,0,0,1,239,42a2.91,2.91,0,0,1-1.59.43,3,3,0,0,1-2.1-.85,3.09,3.09,0,0,1-.62-.93,2.85,2.85,0,0,1-.22-1.13,4,4,0,0,1,.22-1.38,2.93,2.93,0,0,1,.63-1,2.62,2.62,0,0,1,1-.66,3.08,3.08,0,0,1,1.19-.23,3.13,3.13,0,0,1,.9.14,2.37,2.37,0,0,1,.8.38,2.16,2.16,0,0,1,.58.66,1.78,1.78,0,0,1,.23.93,1.21,1.21,0,0,1,0,.33C239.92,38.71,239.81,38.74,239.62,38.74ZM236,38.09h2.34a.44.44,0,0,0,.18,0s0-.07,0-.16a1,1,0,0,0-.08-.37,1.09,1.09,0,0,0-.58-.59,1.15,1.15,0,0,0-.46-.1,1.34,1.34,0,0,0-1,.35A1.63,1.63,0,0,0,236,38.09Z"/><path class="cls-7" d="M242.25,36.22c0,.12,0,.22-.05.3s0,.18,0,.29v.34a5.05,5.05,0,0,1,.48-.39,3.29,3.29,0,0,1,.49-.29,2.81,2.81,0,0,1,.54-.19,3,3,0,0,1,.71-.08,2.12,2.12,0,0,1,.57.07,1.76,1.76,0,0,1,.47.18,1,1,0,0,1,.35.31,1.36,1.36,0,0,1,.22.41,5,5,0,0,1,.9-.64,2.66,2.66,0,0,1,1.38-.33,1.92,1.92,0,0,1,.83.16,1.74,1.74,0,0,1,.56.43,1.68,1.68,0,0,1,.31.61,2.74,2.74,0,0,1,.09.7v2.81a2.13,2.13,0,0,0,0,.39.39.39,0,0,0,.12.23.52.52,0,0,0,.28.11,3.33,3.33,0,0,0,.49,0v.58l-.74,0h-1.73l-.77,0v-.59a3.48,3.48,0,0,0,.5,0,.48.48,0,0,0,.27-.11.45.45,0,0,0,.11-.23,2.13,2.13,0,0,0,0-.39V38.56a3.27,3.27,0,0,0,0-.54,1.36,1.36,0,0,0-.13-.47.77.77,0,0,0-.3-.32,1,1,0,0,0-.52-.12,1.15,1.15,0,0,0-.39.07,3.83,3.83,0,0,0-.43.17,4,4,0,0,0-.41.22l-.32.22v3.12a2.13,2.13,0,0,0,0,.39.35.35,0,0,0,.13.23.52.52,0,0,0,.29.11,3.87,3.87,0,0,0,.52,0v.58l-.77,0h-1.76l-.77,0v-.59a3.19,3.19,0,0,0,.49,0,.55.55,0,0,0,.28-.11.36.36,0,0,0,.12-.22,2.24,2.24,0,0,0,0-.39V38.56a3.26,3.26,0,0,0,0-.55,1.36,1.36,0,0,0-.13-.46.77.77,0,0,0-.3-.32,1,1,0,0,0-.52-.12,1,1,0,0,0-.34.07l-.42.18a3.75,3.75,0,0,0-.44.24,2.93,2.93,0,0,0-.35.25v3.06a2.13,2.13,0,0,0,0,.39.34.34,0,0,0,.12.23.59.59,0,0,0,.29.11,3.63,3.63,0,0,0,.5,0v.58l-.77,0h-1.77l-.79,0v-.59a3.6,3.6,0,0,0,.53,0,.59.59,0,0,0,.29-.11.29.29,0,0,0,.12-.22,2.13,2.13,0,0,0,0-.39V38.12c0-.2,0-.35,0-.46a.41.41,0,0,0-.1-.26.34.34,0,0,0-.23-.11l-.44,0v-.48a4.51,4.51,0,0,0,.85-.18,2.65,2.65,0,0,0,.69-.39Z"/><path class="cls-7" d="M253.43,41.75l-.31-.68c-.11-.26-.22-.53-.35-.81l-.39-.85L252,38.6l-.3-.68c-.08-.2-.15-.35-.19-.47a.77.77,0,0,0-.28-.38,1.42,1.42,0,0,0-.66-.11v-.58l.71,0h2.5V37l-.48,0a.49.49,0,0,0-.25.08.15.15,0,0,0-.09.14.61.61,0,0,0,0,.21l1.16,2.68,1.19-2.59c.1-.21.11-.36,0-.44a1,1,0,0,0-.62-.12v-.59l.59,0h1.53l.55,0V37a2.3,2.3,0,0,0-.42,0,.65.65,0,0,0-.28.12.76.76,0,0,0-.2.23,2.25,2.25,0,0,0-.18.35l-3.17,6.7a1.06,1.06,0,0,1-.27.33,1.47,1.47,0,0,1-.37.24,2.16,2.16,0,0,1-.45.15,2.48,2.48,0,0,1-.45,0A1.08,1.08,0,0,1,251,45a.64.64,0,0,1-.28-.51.72.72,0,0,1,.21-.49.87.87,0,0,1,.57-.24,1.62,1.62,0,0,1,.42,0,1,1,0,0,1,.39.18c.06,0,.11,0,.16-.07Z"/></g></g></g></svg>